<svg xmlns="http://www.w3.org/2000/svg" width="1328" height="756" viewBox="0 0 1328 756">
  <g id="Grupo_121434" data-name="Grupo 121434" transform="translate(-136 -502)">
    <rect id="Rectángulo_35650" data-name="Rectángulo 35650" width="1328" height="756" transform="translate(136 502)" fill="#dbf6f9"/>
    <g id="Grupo_121304" data-name="Grupo 121304" transform="translate(192.256 503.385)">
      <g id="Grupo_121209" data-name="Grupo 121209" transform="translate(197.862 93.253)">
        <g id="Grupo_121204" data-name="Grupo 121204" transform="translate(84.363 55.429)">
          <g id="Grupo_121202" data-name="Grupo 121202">
            <g id="Grupo_121201" data-name="Grupo 121201">
              <path id="Trazado_119549" data-name="Trazado 119549" d="M267.844,262.338H250.1a3.832,3.832,0,0,1-3.827-3.827v-4.575a2.211,2.211,0,0,0-1.681-2.153,63.4,63.4,0,0,1-19.388-7.985,2.245,2.245,0,0,0-2.787.286l-3.213,3.216a3.92,3.92,0,0,1-5.411,0l-12.547-12.547a3.833,3.833,0,0,1,0-5.411l3.213-3.211a2.237,2.237,0,0,0,.284-2.785,63.4,63.4,0,0,1-7.992-19.391,2.211,2.211,0,0,0-2.153-1.681h-4.563a3.832,3.832,0,0,1-3.827-3.826V180.7a3.831,3.831,0,0,1,3.827-3.826H194.6a2.211,2.211,0,0,0,2.153-1.681,63.39,63.39,0,0,1,7.991-19.395,2.241,2.241,0,0,0-.286-2.787l-3.208-3.208a3.833,3.833,0,0,1,0-5.411L213.8,131.851a3.833,3.833,0,0,1,5.411,0l3.2,3.2a2.242,2.242,0,0,0,2.787.286,63.338,63.338,0,0,1,19.4-8,2.208,2.208,0,0,0,1.681-2.153v-4.553a3.832,3.832,0,0,1,3.827-3.826h17.742a3.832,3.832,0,0,1,3.827,3.826v4.554a2.208,2.208,0,0,0,1.679,2.152,63.38,63.38,0,0,1,19.395,8,2.243,2.243,0,0,0,2.787-.284l3.208-3.208a3.832,3.832,0,0,1,5.411,0L316.7,144.4a3.83,3.83,0,0,1,0,5.411l-3.211,3.213a2.241,2.241,0,0,0-.286,2.784A63.338,63.338,0,0,1,321.19,175.2a2.208,2.208,0,0,0,2.153,1.681h4.566a3.829,3.829,0,0,1,3.826,3.826v17.743a3.83,3.83,0,0,1-3.826,3.826h-4.57a2.208,2.208,0,0,0-2.152,1.681,63.389,63.389,0,0,1-7.992,19.39,2.241,2.241,0,0,0,.286,2.785l3.215,3.213a3.83,3.83,0,0,1,0,5.411L304.151,247.3a3.833,3.833,0,0,1-5.411,0l-3.216-3.218a2.243,2.243,0,0,0-2.785-.284,63.429,63.429,0,0,1-19.386,7.984,2.211,2.211,0,0,0-1.681,2.153v4.577A3.832,3.832,0,0,1,267.844,262.338Zm-43.868-20.265a3.686,3.686,0,0,1,1.953.566,62.093,62.093,0,0,0,18.972,7.812,3.543,3.543,0,0,1,2.742,3.485v4.575a2.462,2.462,0,0,0,2.46,2.46h17.742a2.463,2.463,0,0,0,2.46-2.46v-4.577a3.541,3.541,0,0,1,2.742-3.485,62.085,62.085,0,0,0,18.971-7.812,3.6,3.6,0,0,1,4.475.478l3.216,3.216a2.461,2.461,0,0,0,3.478,0l12.545-12.545a2.463,2.463,0,0,0,0-3.478l-3.215-3.213a3.606,3.606,0,0,1-.478-4.476,61.971,61.971,0,0,0,7.819-18.972,3.541,3.541,0,0,1,3.485-2.742h4.57a2.46,2.46,0,0,0,2.458-2.458V180.7a2.46,2.46,0,0,0-2.458-2.458h-4.566a3.586,3.586,0,0,1-3.485-2.744,62.015,62.015,0,0,0-7.819-18.974,3.6,3.6,0,0,1,.478-4.475l3.213-3.213a2.459,2.459,0,0,0,0-3.476l-12.545-12.545a2.46,2.46,0,0,0-3.478,0l-3.208,3.208a3.6,3.6,0,0,1-4.478.478,61.946,61.946,0,0,0-18.976-7.826,3.588,3.588,0,0,1-2.742-3.485v-4.554a2.462,2.462,0,0,0-2.46-2.458H250.1a2.461,2.461,0,0,0-2.46,2.458v4.553a3.545,3.545,0,0,1-2.742,3.486,61.963,61.963,0,0,0-18.981,7.824,3.6,3.6,0,0,1-4.476-.478l-3.2-3.2a2.46,2.46,0,0,0-3.478,0l-12.545,12.545a2.459,2.459,0,0,0,0,3.476l3.208,3.208a3.6,3.6,0,0,1,.478,4.477,62.053,62.053,0,0,0-7.819,18.978,3.588,3.588,0,0,1-3.485,2.744h-4.561a2.461,2.461,0,0,0-2.458,2.458v17.743a2.461,2.461,0,0,0,2.458,2.458H194.6a3.587,3.587,0,0,1,3.485,2.742,62.063,62.063,0,0,0,7.821,18.974,3.6,3.6,0,0,1-.476,4.475l-3.213,3.213a2.462,2.462,0,0,0,0,3.478l12.545,12.545a2.515,2.515,0,0,0,3.478,0l3.215-3.215A3.551,3.551,0,0,1,223.975,242.073Zm34.993-1.786a50.7,50.7,0,1,1,50.682-50.727A50.762,50.762,0,0,1,258.969,240.286Zm0-100.041a49.337,49.337,0,1,0,49.314,49.314A49.368,49.368,0,0,0,258.969,140.245Z" transform="translate(-186.209 -116.812)" fill="#6edde6"/>
            </g>
          </g>
          <g id="Grupo_121203" data-name="Grupo 121203" transform="translate(128.205 86.53)">
            <path id="Trazado_119550" data-name="Trazado 119550" d="M358.513,221.964V209.873a2.142,2.142,0,0,0-2.141-2.141H353.26a1.964,1.964,0,0,1-1.922-1.508,42.8,42.8,0,0,0-5.385-13.071,1.993,1.993,0,0,1,.26-2.475l2.188-2.188a2.143,2.143,0,0,0,0-3.029l-8.55-8.55a2.141,2.141,0,0,0-3.028,0l-2.186,2.186a2,2,0,0,1-2.475.26,42.771,42.771,0,0,0-13.075-5.392,1.965,1.965,0,0,1-1.508-1.921v-3.1a2.141,2.141,0,0,0-2.141-2.141H303.347a2.141,2.141,0,0,0-2.141,2.141v3.1a1.965,1.965,0,0,1-1.508,1.921,42.814,42.814,0,0,0-13.078,5.39,2,2,0,0,1-2.475-.26l-2.183-2.183a2.141,2.141,0,0,0-3.029,0l-8.548,8.55a2.143,2.143,0,0,0,0,3.029l2.186,2.186a2,2,0,0,1,.26,2.474,42.789,42.789,0,0,0-5.387,13.076,1.964,1.964,0,0,1-1.922,1.506h-3.109a2.142,2.142,0,0,0-2.141,2.141v12.091a2.142,2.142,0,0,0,2.141,2.143h3.111a1.962,1.962,0,0,1,1.92,1.506,42.864,42.864,0,0,0,5.389,13.073,1.993,1.993,0,0,1-.26,2.475l-2.188,2.188a2.143,2.143,0,0,0,0,3.029l8.548,8.55a2.143,2.143,0,0,0,3.029,0l2.191-2.192a1.992,1.992,0,0,1,2.474-.26,42.841,42.841,0,0,0,13.071,5.382,1.964,1.964,0,0,1,1.508,1.921V262.9a2.142,2.142,0,0,0,2.141,2.141h12.091a2.142,2.142,0,0,0,2.141-2.141v-3.121a1.962,1.962,0,0,1,1.508-1.92,42.853,42.853,0,0,0,13.069-5.384,1.994,1.994,0,0,1,2.474.26l2.193,2.193a2.141,2.141,0,0,0,3.028,0l8.55-8.55a2.143,2.143,0,0,0,0-3.029l-2.192-2.19a2,2,0,0,1-.26-2.475,42.807,42.807,0,0,0,5.387-13.071,1.964,1.964,0,0,1,1.921-1.506h3.114A2.142,2.142,0,0,0,358.513,221.964ZM309.39,248.089a32.166,32.166,0,1,1,32.151-32.179A32.16,32.16,0,0,1,309.39,248.089Z" transform="translate(-260.271 -166.799)" fill="#6edde6"/>
          </g>
        </g>
        <g id="Grupo_121205" data-name="Grupo 121205" transform="translate(17.394)">
          <circle id="Elipse_4255" data-name="Elipse 4255" cx="5.861" cy="5.861" r="5.861" transform="translate(59.864 505.557)" fill="#92e6ed"/>
          <circle id="Elipse_4256" data-name="Elipse 4256" cx="5.861" cy="5.861" r="5.861" transform="translate(845.123 345.397)" fill="#92e6ed"/>
          <circle id="Elipse_4257" data-name="Elipse 4257" cx="5.861" cy="5.861" r="5.861" transform="translate(833.401 136.097)" fill="#92e6ed"/>
          <circle id="Elipse_4258" data-name="Elipse 4258" cx="3.677" cy="3.677" r="3.677" transform="translate(624.84 67.144)" fill="#92e6ed"/>
          <path id="Trazado_119551" data-name="Trazado 119551" d="M201.851,98.963a3.677,3.677,0,1,1-3.677-3.677A3.677,3.677,0,0,1,201.851,98.963Z" transform="translate(-113.18 -77.119)" fill="#92e6ed"/>
          <path id="Trazado_119552" data-name="Trazado 119552" d="M248.862,229.759a3.677,3.677,0,1,1-3.677-3.677A3.677,3.677,0,0,1,248.862,229.759Z" transform="translate(-78.813 18.499)" fill="#92e6ed"/>
          <path id="Trazado_119553" data-name="Trazado 119553" d="M170.941,385.167a3.677,3.677,0,1,1-3.677-3.675A3.676,3.676,0,0,1,170.941,385.167Z" transform="translate(-135.778 132.112)" fill="#92e6ed"/>
          <circle id="Elipse_4259" data-name="Elipse 4259" cx="5.861" cy="5.861" r="5.861" transform="translate(759.14 509.02)" fill="#92e6ed"/>
          <circle id="Elipse_4260" data-name="Elipse 4260" cx="5.861" cy="5.861" r="5.861" transform="translate(883.776 509.02)" fill="#92e6ed"/>
          <circle id="Elipse_4261" data-name="Elipse 4261" cx="5.861" cy="5.861" r="5.861" transform="translate(183.866)" fill="#92e6ed"/>
          <path id="Trazado_119554" data-name="Trazado 119554" d="M497.374,245.548a7.843,7.843,0,1,1-7.844-7.843A7.843,7.843,0,0,1,497.374,245.548Z" transform="translate(96.772 26.996)" fill="#92e6ed"/>
          <path id="Trazado_119555" data-name="Trazado 119555" d="M163.207,189.522a7.843,7.843,0,1,1-7.842-7.842A7.843,7.843,0,0,1,163.207,189.522Z" transform="translate(-147.522 -13.961)" fill="#92e6ed"/>
        </g>
        <g id="Grupo_121206" data-name="Grupo 121206" transform="translate(0 46.328)">
          <rect id="Rectángulo_35651" data-name="Rectángulo 35651" width="12.162" height="12.162" rx="0.664" fill="#26ccda"/>
          <rect id="Rectángulo_35652" data-name="Rectángulo 35652" width="12.162" height="12.162" rx="0.664" transform="translate(16.268)" fill="#26ccda"/>
          <rect id="Rectángulo_35653" data-name="Rectángulo 35653" width="12.162" height="12.162" rx="0.664" transform="translate(32.537)" fill="#26ccda"/>
        </g>
        <g id="Grupo_121207" data-name="Grupo 121207" transform="translate(828.445 473.436)">
          <rect id="Rectángulo_35654" data-name="Rectángulo 35654" width="12.162" height="12.162" rx="0.664" fill="#fee578"/>
          <rect id="Rectángulo_35655" data-name="Rectángulo 35655" width="12.162" height="12.162" rx="0.664" transform="translate(16.268)" fill="#fee578"/>
          <rect id="Rectángulo_35656" data-name="Rectángulo 35656" width="12.162" height="12.162" rx="0.664" transform="translate(32.536)" fill="#fee578"/>
        </g>
        <g id="Grupo_121208" data-name="Grupo 121208" transform="translate(76.362 466.771)">
          <rect id="Rectángulo_35657" data-name="Rectángulo 35657" width="12.162" height="12.162" rx="0.664" fill="#ffe9d3"/>
          <rect id="Rectángulo_35658" data-name="Rectángulo 35658" width="12.162" height="12.162" rx="0.664" transform="translate(16.268)" fill="#ffe9d3"/>
          <rect id="Rectángulo_35659" data-name="Rectángulo 35659" width="12.162" height="12.162" rx="0.664" transform="translate(32.536)" fill="#ffe9d3"/>
        </g>
      </g>
      <g id="Grupo_121224" data-name="Grupo 121224" transform="translate(454.968 81.478)">
        <g id="Grupo_121210" data-name="Grupo 121210">
          <rect id="Rectángulo_35660" data-name="Rectángulo 35660" width="308.127" height="595.239" rx="21.349" fill="#f57c00"/>
          <rect id="Rectángulo_35661" data-name="Rectángulo 35661" width="296.589" height="581.568" rx="18.7" transform="translate(5.769 5.212)" fill="#fff"/>
          <path id="Trazado_119556" data-name="Trazado 119556" d="M567.455,108.373V624.6a21.922,21.922,0,0,1-21.922,21.922H318.755A21.922,21.922,0,0,1,296.833,624.6V108.373a21.923,21.923,0,0,1,21.922-21.924h37.817a5.545,5.545,0,0,1,4.958,3.062l4.016,8.016a10.832,10.832,0,0,0,9.715,6.015H489.028a10.832,10.832,0,0,0,9.715-6.015l4.016-8.016a5.545,5.545,0,0,1,4.958-3.062h37.816A21.923,21.923,0,0,1,567.455,108.373Z" transform="translate(-278.08 -71.805)" fill="#ffd3a7"/>
          <path id="Trazado_119557" data-name="Trazado 119557" d="M442.907,94.166H351.276a3.857,3.857,0,0,1-3.857-3.859h0a3.857,3.857,0,0,1,3.857-3.859h91.632a3.859,3.859,0,0,1,3.858,3.859h0A3.859,3.859,0,0,1,442.907,94.166Z" transform="translate(-241.1 -71.805)" fill="#ffd3a7"/>
        </g>
        <g id="Grupo_121211" data-name="Grupo 121211" transform="translate(34.102 454.925)">
          <path id="Trazado_119558" data-name="Trazado 119558" d="M524.99,443.532h-4.927a.866.866,0,1,1,0-1.731h4.927a13.542,13.542,0,0,0,4.188-.66.865.865,0,1,1,.533,1.646A15.28,15.28,0,0,1,524.99,443.532Zm-9.838,0h-4.911a.866.866,0,1,1,0-1.731h4.911a.866.866,0,1,1,0,1.731Zm-9.822,0h-4.909a.866.866,0,1,1,0-1.731h4.909a.866.866,0,1,1,0,1.731Zm-9.822,0H490.6a.866.866,0,1,1,0-1.731h4.911a.866.866,0,1,1,0,1.731Zm-9.822,0h-4.911a.866.866,0,0,1,0-1.731h4.911a.866.866,0,1,1,0,1.731Zm-9.822,0h-4.911a.866.866,0,0,1,0-1.731h4.911a.866.866,0,1,1,0,1.731Zm-9.822,0h-4.911a.866.866,0,1,1,0-1.731h4.911a.866.866,0,1,1,0,1.731Zm-9.822,0h-4.911a.866.866,0,0,1,0-1.731h4.911a.866.866,0,1,1,0,1.731Zm-9.822,0h-4.911a.866.866,0,0,1,0-1.731H446.4a.866.866,0,1,1,0,1.731Zm-9.822,0h-4.911a.866.866,0,0,1,0-1.731h4.911a.866.866,0,1,1,0,1.731Zm-9.822,0h-4.911a.866.866,0,1,1,0-1.731h4.911a.866.866,0,1,1,0,1.731Zm-9.822,0h-4.911a.866.866,0,0,1,0-1.731h4.911a.866.866,0,1,1,0,1.731Zm-9.822,0H402.2a.866.866,0,1,1,0-1.731h4.911a.866.866,0,1,1,0,1.731Zm-9.822,0h-4.911a.866.866,0,1,1,0-1.731h4.911a.866.866,0,0,1,0,1.731Zm-9.822,0h-4.911a.866.866,0,0,1,0-1.731h4.911a.866.866,0,0,1,0,1.731Zm-9.822,0h-4.911a.866.866,0,1,1,0-1.731h4.911a.866.866,0,1,1,0,1.731Zm-9.822,0h-4.911a.866.866,0,1,1,0-1.731h4.911a.866.866,0,1,1,0,1.731Zm-9.822,0h-4.911a.866.866,0,0,1,0-1.731H358a.866.866,0,1,1,0,1.731Zm-9.822,0h-4.911a.866.866,0,1,1,0-1.731h4.911a.866.866,0,0,1,0,1.731Zm-9.822,0h-4.911a.866.866,0,1,1,0-1.731h4.911a.866.866,0,0,1,0,1.731Zm-9.822,0h-4.911a.866.866,0,0,1,0-1.731h4.911a.866.866,0,1,1,0,1.731Zm-9.81-.19a.779.779,0,0,1-.14-.012,15.292,15.292,0,0,1-4.9-1.684.866.866,0,1,1,.833-1.518,13.621,13.621,0,0,0,4.343,1.5.865.865,0,0,1-.138,1.719Zm215.045-2.78a.867.867,0,0,1-.526-1.555,13.687,13.687,0,0,0,3.135-3.362.866.866,0,1,1,1.447.95,15.4,15.4,0,0,1-3.53,3.788A.855.855,0,0,1,533.77,440.561Zm-223.494-1.849a.86.86,0,0,1-.644-.287,15.337,15.337,0,0,1-2.763-4.378.866.866,0,0,1,1.6-.663,13.622,13.622,0,0,0,2.451,3.884.866.866,0,0,1-.644,1.444ZM539.058,432.5a.856.856,0,0,1-.208-.024.867.867,0,0,1-.634-1.049,13.611,13.611,0,0,0,.4-3.272v-1.4a.866.866,0,0,1,1.731,0v1.4a15.392,15.392,0,0,1-.447,3.689A.866.866,0,0,1,539.058,432.5Zm-232.472-2.687a.866.866,0,0,1-.864-.819c-.014-.277-.023-.557-.023-.84v-4.118a.866.866,0,0,1,1.731,0v4.118c0,.251.007.5.019.744a.863.863,0,0,1-.815.912Zm232.892-7.1a.866.866,0,0,1-.865-.866v-4.911a.866.866,0,0,1,1.731,0v4.911A.866.866,0,0,1,539.479,422.719ZM306.566,420a.866.866,0,0,1-.866-.866V414.22a.866.866,0,0,1,1.731,0v4.911A.865.865,0,0,1,306.566,420Zm232.913-7.1a.865.865,0,0,1-.865-.866v-4.911a.866.866,0,1,1,1.731,0v4.911A.865.865,0,0,1,539.479,412.9Zm-232.913-2.723a.866.866,0,0,1-.866-.865V404.4a.866.866,0,0,1,1.731,0v4.911A.865.865,0,0,1,306.566,410.173Zm232.913-7.1a.865.865,0,0,1-.865-.865V397.3a.866.866,0,0,1,1.731,0v4.909A.865.865,0,0,1,539.479,403.074Zm-232.913-2.723a.865.865,0,0,1-.866-.865v-4.911a.866.866,0,0,1,1.731,0v4.911A.864.864,0,0,1,306.566,400.351Zm232.913-7.1a.866.866,0,0,1-.865-.866v-4.911a.866.866,0,0,1,1.731,0v4.911A.866.866,0,0,1,539.479,393.253Zm-232.913-2.725a.865.865,0,0,1-.866-.865v-4.909a.866.866,0,0,1,1.731,0v4.909A.864.864,0,0,1,306.566,390.529Zm232.913-7.1a.866.866,0,0,1-.865-.865v-4.911a.866.866,0,1,1,1.731,0v4.911A.866.866,0,0,1,539.479,383.431Zm-232.913-2.723a.866.866,0,0,1-.866-.866v-4.911a.866.866,0,0,1,1.731,0v4.911A.865.865,0,0,1,306.566,380.708Zm232.913-7.1a.866.866,0,0,1-.865-.866v-4.911a.866.866,0,1,1,1.731,0v4.911A.866.866,0,0,1,539.479,373.609Zm-232.913-2.723a.866.866,0,0,1-.866-.866V365.11a.866.866,0,0,1,1.731,0v4.911A.865.865,0,0,1,306.566,370.886Zm232.913-7.1a.865.865,0,0,1-.865-.866v-4.913a.866.866,0,0,1,1.731,0v4.913A.865.865,0,0,1,539.479,363.787Zm-232.913-2.723a.866.866,0,0,1-.866-.866v-4.037c0-.313.01-.62.028-.926a.865.865,0,1,1,1.728.1c-.016.273-.024.547-.024.822V360.2A.865.865,0,0,1,306.566,361.064Zm232.589-7.075a.866.866,0,0,1-.845-.685,13.468,13.468,0,0,0-1.7-4.264.865.865,0,1,1,1.473-.907A15.209,15.209,0,0,1,540,352.944a.867.867,0,0,1-.666,1.027A.933.933,0,0,1,539.155,353.99ZM307.7,351.395a.88.88,0,0,1-.336-.068.865.865,0,0,1-.462-1.134,15.405,15.405,0,0,1,2.789-4.364.866.866,0,0,1,1.283,1.163,13.629,13.629,0,0,0-2.475,3.872A.864.864,0,0,1,307.7,351.395Zm226.425-5.619a.865.865,0,0,1-.545-.194,13.61,13.61,0,0,0-4-2.261.865.865,0,1,1,.585-1.629,15.338,15.338,0,0,1,4.509,2.546.866.866,0,0,1-.547,1.537Zm-219.948-1.515a.866.866,0,0,1-.414-1.627,15.311,15.311,0,0,1,4.908-1.658.866.866,0,0,1,.268,1.712,13.508,13.508,0,0,0-4.352,1.468A.856.856,0,0,1,314.179,344.261Zm210.88-1.738h-4.911a.866.866,0,0,1,0-1.731h4.826a.9.9,0,0,1,.909.866A.831.831,0,0,1,525.059,342.523Zm-9.822,0h-4.911a.866.866,0,0,1,0-1.731h4.911a.866.866,0,0,1,0,1.731Zm-9.822,0H500.5a.866.866,0,0,1,0-1.731h4.911a.866.866,0,0,1,0,1.731Zm-9.822,0h-4.911a.866.866,0,0,1,0-1.731h4.911a.866.866,0,0,1,0,1.731Zm-9.822,0H480.86a.866.866,0,0,1,0-1.731h4.911a.866.866,0,1,1,0,1.731Zm-9.822,0h-4.911a.866.866,0,0,1,0-1.731h4.911a.866.866,0,1,1,0,1.731Zm-9.822,0h-4.911a.866.866,0,1,1,0-1.731h4.911a.866.866,0,0,1,0,1.731Zm-9.822,0h-4.911a.866.866,0,0,1,0-1.731H456.3a.866.866,0,1,1,0,1.731Zm-9.822,0h-4.911a.866.866,0,0,1,0-1.731h4.911a.866.866,0,0,1,0,1.731Zm-9.822,0H431.75a.866.866,0,0,1,0-1.731h4.911a.866.866,0,0,1,0,1.731Zm-9.822,0h-4.911a.866.866,0,0,1,0-1.731h4.911a.866.866,0,0,1,0,1.731Zm-9.822,0h-4.911a.866.866,0,1,1,0-1.731h4.911a.866.866,0,1,1,0,1.731Zm-9.822,0h-4.911a.866.866,0,1,1,0-1.731H407.2a.866.866,0,0,1,0,1.731Zm-9.822,0h-4.911a.866.866,0,1,1,0-1.731h4.911a.866.866,0,0,1,0,1.731Zm-9.822,0H382.64a.866.866,0,1,1,0-1.731h4.911a.866.866,0,0,1,0,1.731Zm-9.822,0h-4.911a.866.866,0,0,1,0-1.731h4.911a.866.866,0,0,1,0,1.731Zm-9.822,0H363a.866.866,0,0,1,0-1.731h4.911a.866.866,0,0,1,0,1.731Zm-9.822,0h-4.911a.866.866,0,0,1,0-1.731h4.911a.866.866,0,0,1,0,1.731Zm-9.822,0h-4.911a.866.866,0,0,1,0-1.731h4.911a.866.866,0,0,1,0,1.731Zm-9.822,0H333.53a.866.866,0,1,1,0-1.731h4.911a.866.866,0,0,1,0,1.731Zm-9.822,0h-4.911a.866.866,0,0,1,0-1.731h4.911a.866.866,0,0,1,0,1.731Z" transform="translate(-305.7 -340.792)" fill="#6edde6"/>
        </g>
        <g id="Grupo_121212" data-name="Grupo 121212" transform="translate(130.563 237.152)">
          <path id="Trazado_119559" data-name="Trazado 119559" d="M473.9,287.637H468.99a.866.866,0,1,1,0-1.731H473.9a9.529,9.529,0,0,0,4.111-.923.865.865,0,1,1,.744,1.561A11.213,11.213,0,0,1,473.9,287.637Zm-9.82,0H459.17a.866.866,0,1,1,0-1.731h4.911a.866.866,0,0,1,0,1.731Zm-9.822,0h-4.911a.866.866,0,1,1,0-1.731h4.911a.866.866,0,1,1,0,1.731Zm-9.824,0h-4.911a.866.866,0,1,1,0-1.731h4.911a.866.866,0,1,1,0,1.731Zm-9.822,0H429.7a.866.866,0,0,1,0-1.731h4.911a.866.866,0,1,1,0,1.731Zm-9.822,0H419.88a.866.866,0,1,1,0-1.731h4.911a.866.866,0,1,1,0,1.731Zm-9.822,0H410.06a.866.866,0,0,1,0-1.731h4.909a.866.866,0,1,1,0,1.731Zm-9.82,0h-4.911a.866.866,0,1,1,0-1.731h4.911a.866.866,0,1,1,0,1.731Zm-9.822,0h-4.913a.866.866,0,0,1,0-1.731h4.913a.866.866,0,1,1,0,1.731Zm-9.824,0h-4.909a.866.866,0,1,1,0-1.731H385.5a.866.866,0,0,1,0,1.731Zm-9.822,0h-2.929a11.406,11.406,0,0,1-2.131-.2.866.866,0,0,1,.325-1.7,9.552,9.552,0,0,0,1.806.171h2.929a.866.866,0,1,1,0,1.731Zm-9.332-2.188a.866.866,0,0,1-.53-.18,11.423,11.423,0,0,1-3.3-4.1.866.866,0,0,1,1.563-.744,9.657,9.657,0,0,0,2.8,3.476.865.865,0,0,1-.53,1.549Zm115.826-1.868a.864.864,0,0,1-.685-1.4,9.609,9.609,0,0,0,1.838-4.065.865.865,0,0,1,1.7.324,11.356,11.356,0,0,1-2.169,4.8A.861.861,0,0,1,482.175,283.581ZM362.29,276.9a.864.864,0,0,1-.866-.866v-4.911a.866.866,0,0,1,1.731,0v4.911A.865.865,0,0,1,362.29,276.9Zm122.074-2.652a.865.865,0,0,1-.866-.866v-4.911a.866.866,0,0,1,1.731,0v4.911A.864.864,0,0,1,484.363,274.249Zm-122.074-7.17a.865.865,0,0,1-.866-.866V261.3a.866.866,0,0,1,1.731,0v4.911A.866.866,0,0,1,362.29,267.079Zm122.074-2.652a.866.866,0,0,1-.866-.866V258.65a.866.866,0,0,1,1.731,0v4.911A.865.865,0,0,1,484.363,264.427Zm-122.074-7.17a.864.864,0,0,1-.866-.866V251.48a.866.866,0,0,1,1.731,0v4.911A.865.865,0,0,1,362.29,257.257ZM484.363,254.6a.866.866,0,0,1-.866-.866v-4.911a.866.866,0,0,1,1.731,0v4.911A.865.865,0,0,1,484.363,254.6Zm-122.074-7.17a.864.864,0,0,1-.866-.866V241.66a.866.866,0,0,1,1.731,0v4.909A.865.865,0,0,1,362.29,247.435Zm122.074-2.652a.865.865,0,0,1-.866-.866v-4.911a.866.866,0,1,1,1.731,0v4.911A.864.864,0,0,1,484.363,244.783Zm-122.074-7.17a.865.865,0,0,1-.866-.866v-4.911a.866.866,0,0,1,1.731,0v4.911A.866.866,0,0,1,362.29,237.613Zm122.074-2.652a.866.866,0,0,1-.866-.866v-4.911a.866.866,0,0,1,1.731,0V234.1A.865.865,0,0,1,484.363,234.961Zm-122.074-7.17a.864.864,0,0,1-.866-.866v-.609a11.275,11.275,0,0,1,.94-4.527.866.866,0,0,1,1.587.692,9.54,9.54,0,0,0-.8,3.834v.609A.865.865,0,0,1,362.29,227.791Zm121.876-2.638a.865.865,0,0,1-.846-.7,9.62,9.62,0,0,0-1.861-4.056.866.866,0,0,1,1.362-1.068,11.353,11.353,0,0,1,2.2,4.788.865.865,0,0,1-.68,1.018A.939.939,0,0,1,484.166,225.153Zm-118.077-6.036a.866.866,0,0,1-.554-1.532,11.352,11.352,0,0,1,4.729-2.321.866.866,0,0,1,.379,1.69,9.615,9.615,0,0,0-4,1.965A.865.865,0,0,1,366.089,219.117ZM478.331,217.7a.841.841,0,0,1-.367-.083,9.5,9.5,0,0,0-4.063-.9h-.336a.866.866,0,0,1,0-1.731h.336a11.2,11.2,0,0,1,4.8,1.065.866.866,0,0,1-.367,1.65Zm-9.677-.983h-4.911a.866.866,0,1,1,0-1.731h4.911a.866.866,0,1,1,0,1.731Zm-9.822,0h-4.911a.866.866,0,1,1,0-1.731h4.911a.866.866,0,1,1,0,1.731Zm-9.822,0H444.1a.866.866,0,0,1,0-1.731h4.909a.866.866,0,0,1,0,1.731Zm-9.82,0h-4.911a.866.866,0,0,1,0-1.731h4.911a.866.866,0,1,1,0,1.731Zm-9.822,0h-4.913a.866.866,0,0,1,0-1.731h4.913a.866.866,0,1,1,0,1.731Zm-9.824,0h-4.911a.866.866,0,0,1,0-1.731h4.911a.866.866,0,1,1,0,1.731Zm-9.822,0h-4.911a.866.866,0,0,1,0-1.731h4.911a.866.866,0,1,1,0,1.731Zm-9.822,0h-4.911a.866.866,0,0,1,0-1.731H399.9a.866.866,0,0,1,0,1.731Zm-9.82,0h-4.913a.866.866,0,1,1,0-1.731h4.913a.866.866,0,1,1,0,1.731Zm-9.824,0h-4.911a.866.866,0,0,1,0-1.731h4.911a.866.866,0,0,1,0,1.731Z" transform="translate(-361.424 -214.988)" fill="#26ccda"/>
        </g>
        <g id="Grupo_121216" data-name="Grupo 121216" transform="translate(34.967 316.801)">
          <rect id="Rectángulo_35662" data-name="Rectángulo 35662" width="233.838" height="113.043" rx="7.201" transform="translate(8.479 9.146)" fill="#f57c00"/>
          <path id="Trazado_119560" data-name="Trazado 119560" d="M539.113,273.446v88.163a12.434,12.434,0,0,1-12.446,12.429H318.646A12.434,12.434,0,0,1,306.2,361.609V273.446A12.448,12.448,0,0,1,318.646,261H526.667A12.448,12.448,0,0,1,539.113,273.446Z" transform="translate(-306.2 -261)" fill="#ffbe7b"/>
          <rect id="Rectángulo_35663" data-name="Rectángulo 35663" width="78.113" height="78.113" rx="4.861" transform="translate(10.761 25.739)" fill="#fff"/>
          <g id="Grupo_121213" data-name="Grupo 121213" transform="translate(96.461 30.307)">
            <path id="Trazado_119561" data-name="Trazado 119561" d="M418.554,283.822H364.581a2.657,2.657,0,0,1-2.657-2.657h0a2.657,2.657,0,0,1,2.657-2.657h53.972a2.658,2.658,0,0,1,2.659,2.657h0A2.658,2.658,0,0,1,418.554,283.822Z" transform="translate(-361.924 -278.508)" fill="#ffe9d3"/>
            <path id="Trazado_119562" data-name="Trazado 119562" d="M393.959,289.953H364.581a2.658,2.658,0,0,1-2.657-2.657h0a2.658,2.658,0,0,1,2.657-2.659h29.378a2.658,2.658,0,0,1,2.657,2.659h0A2.658,2.658,0,0,1,393.959,289.953Z" transform="translate(-361.924 -274.027)" fill="#ffe9d3"/>
            <path id="Trazado_119563" data-name="Trazado 119563" d="M467.292,289.953H387.8a2.658,2.658,0,0,1-2.657-2.657h0a2.658,2.658,0,0,1,2.657-2.659h79.493a2.659,2.659,0,0,1,2.657,2.659h0A2.659,2.659,0,0,1,467.292,289.953Z" transform="translate(-344.951 -274.027)" fill="#ffe9d3"/>
            <path id="Trazado_119564" data-name="Trazado 119564" d="M410.035,296.081H364.581a2.658,2.658,0,0,1-2.657-2.657h0a2.657,2.657,0,0,1,2.657-2.657h45.454a2.658,2.658,0,0,1,2.657,2.657h0A2.659,2.659,0,0,1,410.035,296.081Z" transform="translate(-361.924 -269.546)" fill="#ffe9d3"/>
            <path id="Trazado_119565" data-name="Trazado 119565" d="M425.195,296.081H396.62a2.658,2.658,0,0,1-2.657-2.657h0a2.657,2.657,0,0,1,2.657-2.657h28.575a2.658,2.658,0,0,1,2.657,2.657h0A2.659,2.659,0,0,1,425.195,296.081Z" transform="translate(-338.502 -269.546)" fill="#ffe9d3"/>
            <path id="Trazado_119566" data-name="Trazado 119566" d="M444.834,296.081H418.518a2.659,2.659,0,0,1-2.657-2.657h0a2.658,2.658,0,0,1,2.657-2.657h26.315a2.658,2.658,0,0,1,2.657,2.657h0A2.659,2.659,0,0,1,444.834,296.081Z" transform="translate(-322.493 -269.546)" fill="#ffe9d3"/>
            <path id="Trazado_119567" data-name="Trazado 119567" d="M484.264,302.21H364.581a2.657,2.657,0,0,1-2.657-2.657h0a2.657,2.657,0,0,1,2.657-2.657H484.264a2.658,2.658,0,0,1,2.657,2.657h0A2.658,2.658,0,0,1,484.264,302.21Z" transform="translate(-361.924 -265.065)" fill="#ffe9d3"/>
            <path id="Trazado_119568" data-name="Trazado 119568" d="M430.451,308.339h-65.87a2.657,2.657,0,0,1-2.657-2.657h0a2.657,2.657,0,0,1,2.657-2.657h65.87a2.658,2.658,0,0,1,2.657,2.657h0A2.658,2.658,0,0,1,430.451,308.339Z" transform="translate(-361.924 -260.585)" fill="#ffe9d3"/>
            <path id="Trazado_119569" data-name="Trazado 119569" d="M451.962,308.339H408.767a2.658,2.658,0,0,1-2.657-2.657h0a2.658,2.658,0,0,1,2.657-2.657h43.195a2.658,2.658,0,0,1,2.657,2.657h0A2.658,2.658,0,0,1,451.962,308.339Z" transform="translate(-329.622 -260.585)" fill="#ffe9d3"/>
            <path id="Trazado_119570" data-name="Trazado 119570" d="M403.282,314.468h-38.7a2.657,2.657,0,0,1-2.657-2.657h0a2.658,2.658,0,0,1,2.657-2.657h38.7a2.658,2.658,0,0,1,2.657,2.657h0A2.657,2.657,0,0,1,403.282,314.468Z" transform="translate(-361.924 -256.104)" fill="#ffe9d3"/>
            <path id="Trazado_119571" data-name="Trazado 119571" d="M431.69,314.468h-38.7a2.657,2.657,0,0,1-2.657-2.657h0a2.658,2.658,0,0,1,2.657-2.657h38.7a2.658,2.658,0,0,1,2.657,2.657h0A2.657,2.657,0,0,1,431.69,314.468Z" transform="translate(-341.156 -256.104)" fill="#ffe9d3"/>
            <path id="Trazado_119572" data-name="Trazado 119572" d="M443.2,314.468H420.747a2.657,2.657,0,0,1-2.657-2.657h0a2.658,2.658,0,0,1,2.657-2.657H443.2a2.659,2.659,0,0,1,2.657,2.657h0A2.658,2.658,0,0,1,443.2,314.468Z" transform="translate(-320.864 -256.104)" fill="#ffe9d3"/>
            <path id="Trazado_119573" data-name="Trazado 119573" d="M418.554,320.6H364.581a2.658,2.658,0,0,1-2.657-2.659h0a2.658,2.658,0,0,1,2.657-2.657h53.972a2.659,2.659,0,0,1,2.659,2.657h0A2.66,2.66,0,0,1,418.554,320.6Z" transform="translate(-361.924 -251.624)" fill="#ffe9d3"/>
            <path id="Trazado_119574" data-name="Trazado 119574" d="M456.514,283.822H402.54a2.657,2.657,0,0,1-2.657-2.657h0a2.657,2.657,0,0,1,2.657-2.657h53.974a2.658,2.658,0,0,1,2.657,2.657h0A2.658,2.658,0,0,1,456.514,283.822Z" transform="translate(-334.174 -278.508)" fill="#ffe9d3"/>
          </g>
          <g id="Grupo_121215" data-name="Grupo 121215">
            <path id="Trazado_119575" data-name="Trazado 119575" d="M539.113,273.446v3.7H306.2v-3.7A12.448,12.448,0,0,1,318.646,261H526.667A12.448,12.448,0,0,1,539.113,273.446Z" transform="translate(-306.2 -261)" fill="#ffa726"/>
            <g id="Grupo_121214" data-name="Grupo 121214" transform="translate(183.241 5.482)">
              <path id="Trazado_119576" data-name="Trazado 119576" d="M417.826,267.051a2.886,2.886,0,1,1-2.886-2.884A2.886,2.886,0,0,1,417.826,267.051Z" transform="translate(-412.055 -264.167)" fill="#ffa726"/>
              <path id="Trazado_119577" data-name="Trazado 119577" d="M426.354,267.051a2.886,2.886,0,1,1-2.886-2.884A2.886,2.886,0,0,1,426.354,267.051Z" transform="translate(-405.821 -264.167)" fill="#ffa726"/>
              <path id="Trazado_119578" data-name="Trazado 119578" d="M434.882,267.051A2.886,2.886,0,1,1,432,264.167,2.886,2.886,0,0,1,434.882,267.051Z" transform="translate(-399.586 -264.167)" fill="#ffa726"/>
            </g>
          </g>
        </g>
        <g id="Grupo_121222" data-name="Grupo 121222" transform="translate(47.827 237.308)">
          <g id="Grupo_121217" data-name="Grupo 121217">
            <path id="Trazado_119579" data-name="Trazado 119579" d="M372.878,287.481H326.783a13.169,13.169,0,0,1-13.154-13.153v-46.1a13.168,13.168,0,0,1,13.154-13.152h46.094a13.168,13.168,0,0,1,13.154,13.152v46.1A13.169,13.169,0,0,1,372.878,287.481Zm-46.094-70.854a11.617,11.617,0,0,0-11.605,11.6v46.1a11.615,11.615,0,0,0,11.605,11.6h46.094a11.615,11.615,0,0,0,11.605-11.6v-46.1a11.617,11.617,0,0,0-11.605-11.6Z" transform="translate(-313.629 -215.078)" fill="#26ccda"/>
          </g>
          <g id="Grupo_121221" data-name="Grupo 121221" transform="translate(13.494 24.506)">
            <g id="Grupo_121218" data-name="Grupo 121218">
              <path id="Trazado_119580" data-name="Trazado 119580" d="M333.16,252.625a1.436,1.436,0,0,1-1.023-.424l-10.289-10.288a1.448,1.448,0,0,1,0-2.046l10.208-10.208a1.447,1.447,0,1,1,2.046,2.046l-9.185,9.185,9.265,9.265a1.447,1.447,0,0,1-1.021,2.47Z" transform="translate(-321.424 -229.235)" fill="#26ccda"/>
            </g>
            <g id="Grupo_121219" data-name="Grupo 121219" transform="translate(32.231)">
              <path id="Trazado_119581" data-name="Trazado 119581" d="M341.491,252.625a1.447,1.447,0,0,1-1.023-2.47l9.266-9.265-9.187-9.185a1.447,1.447,0,1,1,2.046-2.046l10.21,10.208a1.446,1.446,0,0,1,0,2.046L342.514,252.2A1.436,1.436,0,0,1,341.491,252.625Z" transform="translate(-340.044 -229.235)" fill="#26ccda"/>
            </g>
            <g id="Grupo_121220" data-name="Grupo 121220" transform="translate(16.48 0)">
              <path id="Trazado_119582" data-name="Trazado 119582" d="M332.391,252.625a1.448,1.448,0,0,1-1.31-2.058l9.561-20.5a1.447,1.447,0,0,1,2.623,1.224l-9.561,20.5A1.449,1.449,0,0,1,332.391,252.625Z" transform="translate(-330.945 -229.235)" fill="#26ccda"/>
            </g>
          </g>
        </g>
        <g id="Grupo_121223" data-name="Grupo 121223" transform="translate(34.967 50.981)">
          <rect id="Rectángulo_35664" data-name="Rectángulo 35664" width="232.913" height="172.465" rx="15" fill="#ffa84e"/>
          <circle id="Elipse_4262" data-name="Elipse 4262" cx="33.756" cy="33.756" r="33.756" transform="translate(151.986 11.788)" fill="#ffe9d3"/>
          <path id="Trazado_119583" data-name="Trazado 119583" d="M443.109,263.469H320.36a14.166,14.166,0,0,1-14.16-14.16V226.615l53.715-93.044a7.3,7.3,0,0,1,12.637,0l40.559,70.246,30.12,52.174A7.158,7.158,0,0,1,443.109,263.469Z" transform="translate(-306.2 -91.004)" fill="#fff"/>
          <path id="Trazado_119584" data-name="Trazado 119584" d="M465.443,247.225H348.06l34.448-59.652,18.557-32.146a6.565,6.565,0,0,1,11.373,0Z" transform="translate(-275.598 -74.76)" fill="#ffe9d3"/>
        </g>
      </g>
      <g id="Grupo_121238" data-name="Grupo 121238" transform="translate(724.163 313.022)">
        <g id="Grupo_121226" data-name="Grupo 121226" transform="translate(97.948 259.747)">
          <rect id="Rectángulo_35665" data-name="Rectángulo 35665" width="90.493" height="135.997" fill="#26ccda"/>
          <rect id="Rectángulo_35666" data-name="Rectángulo 35666" width="34.65" height="135.997" transform="translate(90.493)" fill="#6edde6"/>
          <g id="Grupo_121225" data-name="Grupo 121225" transform="translate(95.454 5.223)">
            <rect id="Rectángulo_35667" data-name="Rectángulo 35667" width="25.44" height="4.34" fill="#dbf6f9"/>
            <rect id="Rectángulo_35668" data-name="Rectángulo 35668" width="25.44" height="4.34" transform="translate(0 9.324)" fill="#dbf6f9"/>
            <rect id="Rectángulo_35669" data-name="Rectángulo 35669" width="25.44" height="4.34" transform="translate(0 18.648)" fill="#dbf6f9"/>
            <rect id="Rectángulo_35670" data-name="Rectángulo 35670" width="25.44" height="4.34" transform="translate(0 27.972)" fill="#dbf6f9"/>
            <rect id="Rectángulo_35671" data-name="Rectángulo 35671" width="25.44" height="4.34" transform="translate(0 37.296)" fill="#dbf6f9"/>
            <rect id="Rectángulo_35672" data-name="Rectángulo 35672" width="25.44" height="4.34" transform="translate(0 46.619)" fill="#dbf6f9"/>
            <rect id="Rectángulo_35673" data-name="Rectángulo 35673" width="25.44" height="4.34" transform="translate(0 55.943)" fill="#dbf6f9"/>
            <rect id="Rectángulo_35674" data-name="Rectángulo 35674" width="25.44" height="4.34" transform="translate(0 65.267)" fill="#dbf6f9"/>
            <rect id="Rectángulo_35675" data-name="Rectángulo 35675" width="25.44" height="4.34" transform="translate(0 74.591)" fill="#dbf6f9"/>
            <rect id="Rectángulo_35676" data-name="Rectángulo 35676" width="25.44" height="4.34" transform="translate(0 83.915)" fill="#dbf6f9"/>
            <rect id="Rectángulo_35677" data-name="Rectángulo 35677" width="25.44" height="4.34" transform="translate(0 93.239)" fill="#dbf6f9"/>
            <rect id="Rectángulo_35678" data-name="Rectángulo 35678" width="25.44" height="4.34" transform="translate(0 102.563)" fill="#dbf6f9"/>
            <rect id="Rectángulo_35679" data-name="Rectángulo 35679" width="25.44" height="4.34" transform="translate(0 111.887)" fill="#dbf6f9"/>
            <rect id="Rectángulo_35680" data-name="Rectángulo 35680" width="25.44" height="4.34" transform="translate(0 121.211)" fill="#dbf6f9"/>
          </g>
        </g>
        <g id="Grupo_121237" data-name="Grupo 121237">
          <path id="Trazado_119585" data-name="Trazado 119585" d="M489.625,448.106h45.991s2.571-8.19-3-18.335c0,0-3.7,2.969-14.79.961A49.316,49.316,0,0,1,510,436.2C506.79,437.751,488.386,441.366,489.625,448.106Z" transform="translate(-406.378 -52.363)" fill="#281616"/>
          <path id="Trazado_119586" data-name="Trazado 119586" d="M491.9,369.386c2.971,17.724,16.677,77.69,22.569,113.114,10.769.917,15.941-.318,18.682-.95-.537-12.353-1.6-41.9-1.475-54.859.2-21.9,1.232-50.779-8.408-66.626l-32.416,2.552c.2,1.71.377,3.1.535,4.1C491.539,367.669,491.717,368.55,491.9,369.386Z" transform="translate(-405.44 -103.322)" fill="#002c54"/>
          <path id="Trazado_119587" data-name="Trazado 119587" d="M441.569,448.106h45.992s2.571-8.19-3-18.335c0,0-3.7,2.969-14.79.961a49.367,49.367,0,0,1-7.824,5.467C458.734,437.751,440.33,441.366,441.569,448.106Z" transform="translate(-441.509 -52.363)" fill="#281616"/>
          <path id="Trazado_119588" data-name="Trazado 119588" d="M457.066,485.964a52.765,52.765,0,0,0,18.167,1.625c2.446-14.24,6.308-45.57,9.784-60.254,5.394-22.827,10.674-54.22,7.006-65.42l-31.886-8.008C460.03,354.916,457.435,450.993,457.066,485.964Z" transform="translate(-430.137 -107.823)" fill="#052635"/>
          <path id="Trazado_119589" data-name="Trazado 119589" d="M582.711,339.63h0c-.641-6.3-1.378-10.9-1.378-10.9l-35.625,8.719-30.262,6.895c-11.219,2.5-24.771,5.508-36.721,8.209-13.407,3.047-22.308,13.23-19.371,26.656l3.36,16.284c18.752-.256,106.918-8.707,114.459-12.515C585.7,378.67,588.259,363.458,582.711,339.63Z" transform="translate(-428.875 -126.232)" fill="#052635"/>
          <path id="Trazado_119590" data-name="Trazado 119590" d="M613.433,340.542h0a49.218,49.218,0,0,0-3.713-13.062l-33.29,10.878-30.262,6.895c-11.219,2.5-24.773,5.508-36.721,8.209-13.407,3.047-22.308,13.23-19.372,26.656l3.362,16.284c18.751-.256,97.129-2.988,114.459-12.515C616.26,379.286,618.981,364.369,613.433,340.542Z" transform="translate(-406.416 -127.143)" fill="#002c54"/>
          <g id="Grupo_121227" data-name="Grupo 121227" transform="translate(54.932 159.17)">
            <path id="Trazado_119591" data-name="Trazado 119591" d="M525.614,306.869s15.824-7.147,20.177.021c2.384,3.924.736,11.214-4.662,14.274s-35.892,15.959-64.676,23.151a69.883,69.883,0,0,0-3.211-8.212,151.543,151.543,0,0,0,25.749-14.371,164.131,164.131,0,0,1,26.622-14.863Z" transform="translate(-473.243 -303.698)" fill="#e5918f"/>
          </g>
          <path id="Trazado_119592" data-name="Trazado 119592" d="M511.509,276.985l-13.561,54.166s1.4,13.693,15.23,6.973,23-49.875,23-49.875Z" transform="translate(-400.25 -164.057)" fill="#e5918f"/>
          <path id="Trazado_119593" data-name="Trazado 119593" d="M531.362,320.45c-1.677-.405-3.279-.85-4.823-1.312q-2.373-.7-4.514-1.447c-12.886-4.418-19.85-9.723-19.85-9.723,4.051-17.612,8.932-29.437,13.272-37.231a5.5,5.5,0,0,0,.329-.578l.346-.578a33.867,33.867,0,0,1,9.434-9.819c.386-.27.751-.521,1.137-.791l1.6,28.28.27,2.912Z" transform="translate(-397.16 -177.227)" fill="#fff"/>
          <path id="Trazado_119594" data-name="Trazado 119594" d="M522.979,308.752c-1.677-.405-3.279-.85-4.823-1.312q-2.373-.7-4.515-1.447c2.706-19.05,5.152-31.02,5.152-31.02l1.388,3.492Z" transform="translate(-388.777 -165.529)" fill="#c7e5f2"/>
          <path id="Trazado_119595" data-name="Trazado 119595" d="M602.918,276.05c-.329,8.371-1.8,21.818-3.067,35.32-.405,4.283-.791,8.584-1.12,12.732-.23,2.584-4.127,16.379-4.283,18.848-.694,11.806-6.481,20.641-1,38.62,1.312,4.3,1.639,6.521,1.639,8.3,0,1.234-1.6,2.527-2.237,2.875-2.3,1.331-6.81,2.255-12.289,2.932h-.019c-10.784,1.31-25.329,1.561-34.107,1.561-11.787,0-29.476-1.871-31.715-4.842-2.044-2.719-.154-6.675.81-12.135,4.342-24.635,2.8-37.481,2.527-55.267,0-.443-.019-.888-.019-1.35-.443-27.432-2.257-50.909-.983-59.377.386-.27.751-.521,1.137-.791,1.871-1.274,3.7-2.411,5.479-3.415.154-.076.348-.192.54-.308.54-.308,1.1-.6,1.62-.888a6.255,6.255,0,0,1,.618-.308,134.439,134.439,0,0,1,13.156-5.19c.424-.135.81-.27,1.139-.367,3.144-.192,6.557-.23,10.243-.133,3.2.1,8.1.519,13.426,1.215h.019a138.734,138.734,0,0,1,17.825,3.336,1.044,1.044,0,0,1,.1.04c.983.308,7.369,2.7,14.025,9.819A47.514,47.514,0,0,1,602.918,276.05Z" transform="translate(-388.657 -181.729)" fill="#fff"/>
          <path id="Trazado_119596" data-name="Trazado 119596" d="M566.329,364.123c1.312,4.3,1.639,6.521,1.639,8.3,0,1.234-1.6,2.527-2.237,2.875-2.3,1.331-6.81,2.256-12.289,2.932,2.257-.272,6.152-3.852,6.154-7.08,0-2.262-2.932-17.536-2.122-27.394.81-9.837,2.411-25.5-.637-38.042-3.067-12.538-5.941-29.033-5.941-29.033l17.188,10.379s2.219,3.106,4.65,6.867c-.405,4.283-.791,8.584-1.12,12.732C571.384,309.24,560.851,346.144,566.329,364.123Z" transform="translate(-361.541 -164.282)" fill="#c7e5f2"/>
          <g id="Grupo_121235" data-name="Grupo 121235" transform="translate(121.097)">
            <path id="Trazado_119597" data-name="Trazado 119597" d="M516.13,224.354s1.487,17.977,7.447,19.185,4.5-6.431,4.5-6.431l-.833-8.536Z" transform="translate(-508.055 -202.533)" fill="#002c54"/>
            <path id="Trazado_119598" data-name="Trazado 119598" d="M535.321,281.013c-11.671-1.39-7.312-12.732-5.711-15.337.424-.135,2.43-.751,2.585-.848a.065.065,0,0,1,.04-.019,3.2,3.2,0,0,0,.905-1.35c1.139-2.991.618-8.951.58-9.337v-1.1c.192-.713.386-1.39.54-2.025l6.135-4.823,12.981-10.206s-3.452,17.073-.675,27.837a4.056,4.056,0,0,0,1.717,2.586c0,.019.019,0,.019,0a3.142,3.142,0,0,0,1.293.462C558.914,268.358,554.477,283.29,535.321,281.013Z" transform="translate(-499.761 -194.043)" fill="#e5918f"/>
            <path id="Trazado_119599" data-name="Trazado 119599" d="M543.219,242.236s-.109,11.394-12.476,16.632c1.149-2.972.62-8.937.583-9.32l5.181-4.068Z" transform="translate(-497.372 -189.46)" fill="#cc6362"/>
            <path id="Trazado_119600" data-name="Trazado 119600" d="M517.776,233.366s2.7,37.3,12.77,40.469c0,0,12.831,1.208,22.043-11.184,2.655-3.571,6.008-4.373,7.1-8.685,1.779-7,4.29-19.921,1.087-27.705C556.221,215.175,518.209,206.371,517.776,233.366Z" transform="translate(-506.851 -208.987)" fill="#e5918f"/>
            <path id="Trazado_119601" data-name="Trazado 119601" d="M565.548,222.866c-.164-6.775-7.023-9.306-7.023-9.306-6.827-3.2-21.015-1.818-35.642,1.445-3.429.765-7.733-1.34-10.128.322-2.894,2.008-.012,11.183-.012,11.183,5.643,17.087,26.405,11.531,32.644,9.422,1.484,4.4,1.293,10.516,4.992,13.67,2.107,1.8,5.771,1.849,9.495,1.229.459.871,2.181,1.639,2.531,2.835,1.174,4,1.006,10.239.969,15.06l1.76-.86C565.365,266.561,583.575,223.425,565.548,222.866Z" transform="translate(-511.465 -211.748)" fill="#002c54"/>
            <g id="Grupo_121232" data-name="Grupo 121232" transform="translate(11.986 29.319)">
              <g id="Grupo_121228" data-name="Grupo 121228" transform="translate(0 2.274)">
                <path id="Trazado_119602" data-name="Trazado 119602" d="M523.655,242.182a4.55,4.55,0,0,1-3.066-1.281,7.316,7.316,0,0,1-1.44-8.456,4.4,4.4,0,0,1,3.118-2.391c2.626-.452,5.252,1.89,5.82,5.219h0a7,7,0,0,1-.649,4.463,4.406,4.406,0,0,1-3.118,2.389A3.921,3.921,0,0,1,523.655,242.182Zm-.727-11.316a3.035,3.035,0,0,0-.516.043,3.547,3.547,0,0,0-2.5,1.944,6.453,6.453,0,0,0,1.26,7.407,3.346,3.346,0,0,0,5.5-.935,6.124,6.124,0,0,0,.557-3.907h0C526.782,232.79,524.915,230.866,522.928,230.866Z" transform="translate(-518.389 -229.999)" fill="#fff"/>
              </g>
              <g id="Grupo_121229" data-name="Grupo 121229" transform="translate(12.171)">
                <path id="Trazado_119603" data-name="Trazado 119603" d="M530.684,240.87a4.547,4.547,0,0,1-3.066-1.283,7,7,0,0,1-2.089-4c-.564-3.329,1.125-6.4,3.767-6.852,2.619-.447,5.252,1.892,5.82,5.221h0a6.978,6.978,0,0,1-.649,4.461,4.4,4.4,0,0,1-3.116,2.391A4.122,4.122,0,0,1,530.684,240.87Zm-.727-11.318a3.054,3.054,0,0,0-.516.043c-2.171.369-3.542,2.995-3.055,5.851a6.108,6.108,0,0,0,1.818,3.5,3.345,3.345,0,0,0,5.5-.936,6.118,6.118,0,0,0,.557-3.905h0C533.814,231.477,531.944,229.552,529.957,229.552Z" transform="translate(-525.42 -228.685)" fill="#fff"/>
              </g>
              <g id="Grupo_121230" data-name="Grupo 121230" transform="translate(8.9 6.521)">
                <path id="Trazado_119604" data-name="Trazado 119604" d="M524.255,233.8l-.724-.476c.112-.182.8-1.084,3.741-.827l-.074.864C524.807,233.156,524.262,233.795,524.255,233.8Z" transform="translate(-523.531 -232.453)" fill="#fff"/>
              </g>
              <g id="Grupo_121231" data-name="Grupo 121231" transform="translate(21.476 4.001)">
                <path id="Trazado_119605" data-name="Trazado 119605" d="M530.931,233.515l-.135-.857L541.2,231l.135.857Z" transform="translate(-530.796 -230.997)" fill="#fff"/>
              </g>
            </g>
            <g id="Grupo_121233" data-name="Grupo 121233" transform="translate(41.723 31.246)">
              <path id="Trazado_119606" data-name="Trazado 119606" d="M538.542,245.5c7.165,2.744,9.4-14.889,2.6-15.671-5.159-.592-5.37,6.606-5.37,6.606S534.451,243.938,538.542,245.5Z" transform="translate(-535.568 -229.799)" fill="#e5918f"/>
            </g>
            <g id="Grupo_121234" data-name="Grupo 121234" transform="translate(44.028 33.94)" opacity="0.5">
              <path id="Trazado_119607" data-name="Trazado 119607" d="M539.932,231.355a6.205,6.205,0,0,0-.888,1.264,7.358,7.358,0,0,0-.874,3.007,10.483,10.483,0,0,0-.026,1.71c.019.559.087,1.084.125,1.549s.09.862.119,1.136.028.448.028.448a4.135,4.135,0,0,1-.256-.365,7.529,7.529,0,0,1-.585-1.027,7.011,7.011,0,0,1-.526-1.6,6.624,6.624,0,0,1-.126-1.966,5.611,5.611,0,0,1,.528-1.937,4.647,4.647,0,0,1,1.037-1.407A3.424,3.424,0,0,1,539.932,231.355Z" transform="translate(-536.899 -231.355)" fill="#cc6362"/>
              <path id="Trazado_119608" data-name="Trazado 119608" d="M541.016,233.3a3.073,3.073,0,0,0-.694.184,3.529,3.529,0,0,0-1.271.8,3.141,3.141,0,0,0-.751,1.2,3.477,3.477,0,0,0-.173.609l-1.182-.422a4.715,4.715,0,0,1,.429-.7,4,4,0,0,1,1.3-1.189,3.945,3.945,0,0,1,1.6-.492A3.206,3.206,0,0,1,541.016,233.3Z" transform="translate(-536.866 -229.951)" fill="#cc6362"/>
            </g>
          </g>
          <path id="Trazado_119609" data-name="Trazado 119609" d="M592.541,333.761l0,.017c-3.149,3.652-15.1,6.315-20.845,1.262-1.807-1.61-3.846-5.851-5.849-11.113-5.1-13.455-9.922-33.586-9.922-33.586l26.738-13.663s3.44,15.424,6.4,30.08c0,0,.026.149.081.409.964,4.695,1.863,9.313,2.567,13.275a1.84,1.84,0,0,1,.052.315C592.47,325.49,592.923,330.422,592.541,333.761Z" transform="translate(-357.868 -164.282)" fill="#e5918f"/>
          <path id="Trazado_119610" data-name="Trazado 119610" d="M550.089,285.845c2.583,10.736,10.7,31.083,10.7,31.083,5.685.943,13.307-.1,19.623-2.373a36.157,36.157,0,0,0,12.5-8.119s-5.384-15.126-10.213-26c-4.336-9.756-6.94-13.4-8.816-15.332a42.494,42.494,0,0,0-10.617-7.9Z" transform="translate(-362.132 -178.511)" fill="#fff"/>
          <path id="Trazado_119611" data-name="Trazado 119611" d="M581.468,294.116l-15.69-6.77-12.363-31.855s2.266.689,5.25,1.894h.014c.057.028.185.071.4.158a1.632,1.632,0,0,1,.229.1c2.668,1.248,13.009,7.343,20.167,29.488l.171.559c.76,2.553,1.319,4.6,1.62,5.666.029.1.059.2.087.315C581.4,293.815,581.427,293.972,581.468,294.116Z" transform="translate(-359.701 -179.77)" fill="#fff"/>
          <g id="Grupo_121236" data-name="Grupo 121236" transform="translate(134.329 142.081)">
            <path id="Trazado_119612" data-name="Trazado 119612" d="M611.8,321.225l0,.017c-.23,1.958-.77,3.365-1.738,3.864-.154.1-2.349,1.406-2.5,1.5a133.448,133.448,0,0,1-16.573,8.57,600.447,600.447,0,0,1-57.876,20.8,68.219,68.219,0,0,0-3.54-8.079A151.626,151.626,0,0,0,554.7,332.473c12.472-9.519,30.411-21.083,30.411-21.083l4.53-5.328s16.1-14.821,18.689-11.84c0,0,.026.149.081.409.384,1.546,1.662,7.232,2.567,13.275a1.857,1.857,0,0,1,.052.315C611.733,312.954,612.186,317.886,611.8,321.225Z" transform="translate(-511.46 -293.826)" fill="#e5918f"/>
            <path id="Trazado_119613" data-name="Trazado 119613" d="M539.073,325.472a9.961,9.961,0,0,1-6.357,1.222c-1.774-.372-2.491-1.1-3.8-1.329s-4.807-.663-6.538-1.511-2.4-.943-2.344.794,3.474,3.239,4.4,3.72a8.769,8.769,0,0,1,2.212,2.216c.126.194-5.69,3.237-7.253,2.619a4.528,4.528,0,0,0-.2,2.183c.265.781,1.461,1.056,1.554,1.449s-.275,1.194-.016,1.819,1.326.625,1.757,1.638-.043,1.03.27,2.086,1.665,1.248,1.921,1.792.121,1.182.687,1.558,5.8-1.3,7.707-2.12,7.011-8.164,12.656-10.667Z" transform="translate(-519.109 -272.306)" fill="#e5918f"/>
          </g>
          <path id="Trazado_119614" data-name="Trazado 119614" d="M563.259,345.158H522.585v-3.98h40.674a1.99,1.99,0,0,1,1.991,1.989h0A1.991,1.991,0,0,1,563.259,345.158Z" transform="translate(-382.239 -117.129)" fill="#fee578"/>
          <path id="Trazado_119615" data-name="Trazado 119615" d="M586.328,377.4H484.485a2.713,2.713,0,0,1-2.616-1.989l-20.845-75.036a2.608,2.608,0,0,1,2.512-3.3H562.02a5.108,5.108,0,0,1,4.921,3.743l20.769,74.766A1.436,1.436,0,0,1,586.328,377.4Z" transform="translate(-427.314 -149.372)" fill="#fee578"/>
          <path id="Trazado_119616" data-name="Trazado 119616" d="M584.2,377.4H482.356a2.717,2.717,0,0,1-2.617-1.989l-20.844-75.036a2.608,2.608,0,0,1,2.512-3.3h98.483a5.109,5.109,0,0,1,4.923,3.743l20.769,74.766A1.437,1.437,0,0,1,584.2,377.4Z" transform="translate(-428.87 -149.372)" fill="#fdd835"/>
        </g>
      </g>
      <g id="Grupo_121239" data-name="Grupo 121239" transform="translate(278.91 410.289)">
        <path id="Trazado_119617" data-name="Trazado 119617" d="M298.064,328.868l11.8-12.095s.409-5.394,1.051-6.531,2.3-5.351,3.128-5.809a4.274,4.274,0,0,1,2.481,0,11.356,11.356,0,0,1,2.373-.552,6.96,6.96,0,0,1,2.11.672s1.764-.119,2.5-.119a1.568,1.568,0,0,1,.971.206,52.1,52.1,0,0,1,4.222-4.374c1.378-1.1,3.485-3.132,4.11-3.123.589.007.848,1.042.419,2.145a12.221,12.221,0,0,1-2.294,2.88l-5.375,8.145a11.548,11.548,0,0,0,1.407-.673c.49-.306,3.768-3.369,3.968-3.492s1.667-1.1,2.526-.121-5.628,8.747-6.67,9.789-7,4.059-7,4.059-6.294,11.323-6.907,12.057S298.064,328.868,298.064,328.868Z" transform="translate(-101.122 -246.589)" fill="#e49191"/>
        <path id="Trazado_119618" data-name="Trazado 119618" d="M322.986,291.648s-6.59,38.173-12.792,39.059c0,0-24.763,1-30.278-29.042-4.785-26.051,14.4-31.606,23.378-29.613S324.913,275.342,322.986,291.648Z" transform="translate(-114.941 -265.199)" fill="#e49191"/>
        <path id="Trazado_119619" data-name="Trazado 119619" d="M302.184,311.013s-3.469,4.676-4.684,16c0,0-10.314,1.475-19.821-3.421a140.291,140.291,0,0,0,5.752-33.323" transform="translate(-116.024 -251.611)" fill="#e49191"/>
        <path id="Trazado_119620" data-name="Trazado 119620" d="M296.288,268.4c-13.532,2.99-12.45,11.42-12.45,11.42-6.334,1.568-7.7,4.184-7.644,15.877s4.284,25.736,6.618,26.878,15.562,1.2,16.667.8,5.733-11.129,4.655-13.016.054-9.31,3.135-9.59,2.477,4.494,2.477,4.494l2.533-.556,1.956-4.8c17.882,1.065,22.5-19.313,22.5-19.313C332.439,277.795,309.821,265.411,296.288,268.4Z" transform="translate(-117.111 -267.938)" fill="#002c54"/>
        <path id="Trazado_119621" data-name="Trazado 119621" d="M204.247,417.563l13.682,1.977L213.4,435.517,198.58,431.78s-6.029-8.172,3.073-14.217A4.984,4.984,0,0,1,204.247,417.563Z" transform="translate(-175.281 -158.682)" fill="#e5918f"/>
        <path id="Trazado_119622" data-name="Trazado 119622" d="M300.933,419.979l-20.167-61.061s-6.112-2.178-9.242,0c0,0-21.008,11.3-18.768,43.508,1.689,24.283,6.817,50.621,8.894,61.182l-53.8-1.991a18.332,18.332,0,0,0-2.344,18.16s67.608,18.183,77.131,19.862c7.74,1.368,16.211,2.42,20.3-1.085C310.142,492.382,300.933,419.979,300.933,419.979Z" transform="translate(-169.846 -202.135)"/>
        <path id="Trazado_119623" data-name="Trazado 119623" d="M241.048,417.563l13.682,1.977L250.2,435.517l-14.818-3.737s-6.029-8.172,3.073-14.217A4.984,4.984,0,0,1,241.048,417.563Z" transform="translate(-148.378 -158.682)" fill="#e5918f"/>
        <path id="Trazado_119624" data-name="Trazado 119624" d="M245.1,427.671c-.306,3.145,2.446,5.977,1.942,6.761s-9.7,16.215-9.7,16.215,6.943,3.024,5.823,7.392H225.577s-4.591-4.144-4.48-10.08a51.01,51.01,0,0,1,4.331-12.879c3.135-6.048,10.265-19.7,10.265-19.7a9.955,9.955,0,0,1,5.861.112,35.548,35.548,0,0,1,8.506,3.8S245.853,419.9,245.1,427.671Z" transform="translate(-157.39 -160.414)" fill="#467cdb"/>
        <path id="Trazado_119625" data-name="Trazado 119625" d="M372.168,485.319c-4.341-16.2-45.189-85.357-59.008-104.029-28.382-12.323-58.634-22.781-58.634-22.781-12.51,2.988-18.673,28.2-11.577,45,4.868,11.53,35.75,40.548,54.661,57.632l-52.479-.062s-6.183,9.24-.58,18.017c0,0,87.281,19.847,94.938,20.967s24.835,0,24.835,0S375.822,498.956,372.168,485.319Z" transform="translate(-143.605 -201.726)" fill="#002c54"/>
        <path id="Trazado_119626" data-name="Trazado 119626" d="M208.3,427.671c-.306,3.145,2.446,5.977,1.942,6.761s-9.7,16.215-9.7,16.215,6.945,3.024,5.825,7.392H188.776s-4.592-4.144-4.48-10.08a51.008,51.008,0,0,1,4.331-12.879c3.135-6.048,10.265-19.7,10.265-19.7a9.953,9.953,0,0,1,5.861.112,35.586,35.586,0,0,1,8.506,3.8S209.052,419.9,208.3,427.671Z" transform="translate(-184.294 -160.414)" fill="#467cdb"/>
        <path id="Trazado_119627" data-name="Trazado 119627" d="M381.739,308.679,353.59,358.192,333.431,338.1l-16.686,24.837,4.845,2.326-1.743,1.451s38.9,18.946,43.565,14.768S389.8,314.308,389.8,314.308Z" transform="translate(-87.465 -238.154)" fill="#e49191"/>
        <path id="Trazado_119628" data-name="Trazado 119628" d="M393.289,345.067s-5.314,22.417-15.943,33.046l-27.195-10.352s-12.619,21.223-24.962,37.495c-4.743,6.284-6.318,15.129-11.892,16.289-.346-.121-.675-.225-1.021-.312-15.112-4.535-37.408.277-55.809-6.561-20.323-7.565-16.376-11.823-16.376-11.823s12.325-22.209,19.319-45.734a280.4,280.4,0,0,0,6.716-27.576,31.751,31.751,0,0,1,26.727-25.568c.156-.017.294-.052.45-.069,15.406-1.956,55.74,2.8,63.582,6.163S393.289,345.067,393.289,345.067Z" transform="translate(-143.729 -241.98)" fill="#467cdb"/>
        <path id="Trazado_119629" data-name="Trazado 119629" d="M319.1,342.12s-12.619,21.223-24.962,37.495c-4.743,6.284-6.318,15.129-11.892,16.289,2.441-.865,6.491-13.71,7.928-16.6,1.454-2.874,3.756-5.764,8.742-15.856,4.968-10.109,11.712-24.925,11.712-24.925Z" transform="translate(-112.683 -216.338)" fill="#5996ef"/>
        <path id="Trazado_119630" data-name="Trazado 119630" d="M273.26,418.026s.428-.1,1.182-.192c.755-.078,1.837-.235,3.138-.286a52.141,52.141,0,0,1,9.528.44,50.1,50.1,0,0,1,5.015.95,37.633,37.633,0,0,1,4.272,1.267,31.074,31.074,0,0,1,2.917,1.2c.692.317,1.077.521,1.077.521s-.438-.05-1.182-.178c-.739-.158-1.811-.3-3.078-.518-2.536-.424-5.9-.964-9.273-1.416-1.683-.261-3.377-.443-4.963-.666l-4.352-.545Z" transform="translate(-119.255 -158.608)"/>
        <path id="Trazado_119631" data-name="Trazado 119631" d="M376.019,301.894c-.455-.047-3.339,2.269-4.733,3.414l1.6-3.073a30.241,30.241,0,0,0,2.886-3.175c.765-1.125.362-2.25-.241-2.311-.424-.043-2.964,1.972-4.433,3.17l.324-.618a30.24,30.24,0,0,0,2.886-3.175c.763-1.125.362-2.25-.241-2.311s-5.486,4.039-5.486,4.039l-2.378,3.183L368,297.556a15.029,15.029,0,0,0,1.575-2.413c.628-1.259.175-1.645-.175-2.063s-3.637,2.029-4.476,3.007a50.76,50.76,0,0,0-3.706,5.508l-2.747,5.683c-.177-1.646-.452-4.464-.646-6.259-.28-2.588-2.623-3.2-2.7-1.942s-1.387,7.449-1.091,10.805.857,5.56,1.066,7.449-1.748,5.662-1.748,5.662,7.833,4.864,9.13,3.408a61.176,61.176,0,0,0,5.384-6.867,36.575,36.575,0,0,0,3.066-6.924l2.448-5.229a30.241,30.241,0,0,0,2.886-3.175C377.023,303.078,376.621,301.953,376.019,301.894Z" transform="translate(-60.707 -249.593)" fill="#e49191"/>
      </g>
      <g id="Grupo_121247" data-name="Grupo 121247" transform="translate(940.567 304.155)">
        <g id="Grupo_121240" data-name="Grupo 121240">
          <path id="Trazado_119632" data-name="Trazado 119632" d="M578.665,265.224a1.488,1.488,0,0,1-1.483-1.482v-11.88a.764.764,0,0,0-.665-.756,11.449,11.449,0,0,1-10-11.344v-21.7a11.45,11.45,0,0,1,11.435-11.435h91.857a11.449,11.449,0,0,1,11.435,11.435v21.7A11.448,11.448,0,0,1,669.814,251.2H589.855a.775.775,0,0,0-.63.325L579.867,264.6A1.472,1.472,0,0,1,578.665,265.224Zm-.708-57.047a9.893,9.893,0,0,0-9.882,9.884v21.7a9.892,9.892,0,0,0,8.634,9.8,2.318,2.318,0,0,1,2.024,2.3v11.88l9.23-13.123a2.335,2.335,0,0,1,1.892-.973h79.959a9.894,9.894,0,0,0,9.883-9.884v-21.7a9.893,9.893,0,0,0-9.883-9.884Z" transform="translate(-566.522 -206.626)" fill="#fdd835"/>
        </g>
        <g id="Grupo_121246" data-name="Grupo 121246" transform="translate(17.733 17.968)">
          <g id="Grupo_121241" data-name="Grupo 121241">
            <path id="Trazado_119633" data-name="Trazado 119633" d="M581.05,225.575a4.284,4.284,0,1,1,4.286-4.284A4.289,4.289,0,0,1,581.05,225.575Zm0-7.019a2.735,2.735,0,1,0,2.733,2.735A2.737,2.737,0,0,0,581.05,218.555Z" transform="translate(-576.766 -217.006)" fill="#fdd835"/>
          </g>
          <g id="Grupo_121242" data-name="Grupo 121242" transform="translate(17.672)">
            <path id="Trazado_119634" data-name="Trazado 119634" d="M591.261,225.575a4.284,4.284,0,1,1,4.286-4.284A4.29,4.29,0,0,1,591.261,225.575Zm0-7.019a2.735,2.735,0,1,0,2.733,2.735A2.739,2.739,0,0,0,591.261,218.555Z" transform="translate(-586.975 -217.006)" fill="#fdd835"/>
          </g>
          <g id="Grupo_121243" data-name="Grupo 121243" transform="translate(35.346)">
            <path id="Trazado_119635" data-name="Trazado 119635" d="M601.469,225.575a4.284,4.284,0,1,1,4.286-4.284A4.289,4.289,0,0,1,601.469,225.575Zm0-7.019a2.735,2.735,0,1,0,2.733,2.735A2.737,2.737,0,0,0,601.469,218.555Z" transform="translate(-597.185 -217.006)" fill="#fdd835"/>
          </g>
          <g id="Grupo_121244" data-name="Grupo 121244" transform="translate(53.019)">
            <path id="Trazado_119636" data-name="Trazado 119636" d="M611.678,225.575a4.284,4.284,0,1,1,4.286-4.284A4.289,4.289,0,0,1,611.678,225.575Zm0-7.019a2.735,2.735,0,1,0,2.733,2.735A2.737,2.737,0,0,0,611.678,218.555Z" transform="translate(-607.394 -217.006)" fill="#fdd835"/>
          </g>
          <g id="Grupo_121245" data-name="Grupo 121245" transform="translate(70.693)">
            <path id="Trazado_119637" data-name="Trazado 119637" d="M621.888,225.575a4.284,4.284,0,1,1,4.286-4.284A4.289,4.289,0,0,1,621.888,225.575Zm0-7.019a2.735,2.735,0,1,0,2.733,2.735A2.737,2.737,0,0,0,621.888,218.555Z" transform="translate(-617.604 -217.006)" fill="#fdd835"/>
          </g>
        </g>
      </g>
      <g id="Grupo_121255" data-name="Grupo 121255" transform="translate(306.593 399.289)">
        <g id="Grupo_121248" data-name="Grupo 121248">
          <path id="Trazado_119638" data-name="Trazado 119638" d="M302.868,320.179a1.47,1.47,0,0,1-1.2-.62l-9.358-13.083a.773.773,0,0,0-.63-.324H211.72a11.448,11.448,0,0,1-11.434-11.435v-21.7a11.448,11.448,0,0,1,11.434-11.434h91.857a11.448,11.448,0,0,1,11.434,11.434v21.7a11.445,11.445,0,0,1-9.992,11.344.764.764,0,0,0-.666.758V318.7a1.481,1.481,0,0,1-1.484,1.482ZM211.72,263.134a9.9,9.9,0,0,0-9.884,9.883v21.7a9.9,9.9,0,0,0,9.884,9.884h79.959a2.333,2.333,0,0,1,1.89.971l9.358,13.085-.126-11.839a2.315,2.315,0,0,1,2.024-2.3,9.894,9.894,0,0,0,8.636-9.806v-21.7a9.894,9.894,0,0,0-9.884-9.883Z" transform="translate(-200.286 -261.583)" fill="#26ccda"/>
        </g>
        <g id="Grupo_121254" data-name="Grupo 121254" transform="translate(17.731 17.967)">
          <g id="Grupo_121249" data-name="Grupo 121249" transform="translate(70.693)">
            <path id="Trazado_119639" data-name="Trazado 119639" d="M255.651,280.532a4.285,4.285,0,1,1,4.284-4.284A4.289,4.289,0,0,1,255.651,280.532Zm0-7.019a2.734,2.734,0,1,0,2.733,2.735A2.738,2.738,0,0,0,255.651,273.513Z" transform="translate(-251.367 -271.962)" fill="#26ccda"/>
          </g>
          <g id="Grupo_121250" data-name="Grupo 121250" transform="translate(53.019)">
            <path id="Trazado_119640" data-name="Trazado 119640" d="M245.441,280.532a4.285,4.285,0,1,1,4.284-4.284A4.29,4.29,0,0,1,245.441,280.532Zm0-7.019a2.734,2.734,0,1,0,2.735,2.735A2.736,2.736,0,0,0,245.441,273.513Z" transform="translate(-241.157 -271.962)" fill="#26ccda"/>
          </g>
          <g id="Grupo_121251" data-name="Grupo 121251" transform="translate(35.346)">
            <path id="Trazado_119641" data-name="Trazado 119641" d="M235.232,280.532a4.285,4.285,0,1,1,4.284-4.284A4.289,4.289,0,0,1,235.232,280.532Zm0-7.019a2.734,2.734,0,1,0,2.733,2.735A2.738,2.738,0,0,0,235.232,273.513Z" transform="translate(-230.948 -271.962)" fill="#26ccda"/>
          </g>
          <g id="Grupo_121252" data-name="Grupo 121252" transform="translate(17.672)">
            <path id="Trazado_119642" data-name="Trazado 119642" d="M225.022,280.532a4.285,4.285,0,1,1,4.286-4.284A4.29,4.29,0,0,1,225.022,280.532Zm0-7.019a2.734,2.734,0,1,0,2.735,2.735A2.736,2.736,0,0,0,225.022,273.513Z" transform="translate(-220.738 -271.962)" fill="#26ccda"/>
          </g>
          <g id="Grupo_121253" data-name="Grupo 121253">
            <path id="Trazado_119643" data-name="Trazado 119643" d="M214.813,280.532a4.285,4.285,0,1,1,4.284-4.284A4.289,4.289,0,0,1,214.813,280.532Zm0-7.019a2.734,2.734,0,1,0,2.735,2.735A2.738,2.738,0,0,0,214.813,273.513Z" transform="translate(-210.529 -271.962)" fill="#26ccda"/>
          </g>
        </g>
      </g>
      <g id="Grupo_121260" data-name="Grupo 121260" transform="translate(687.857 220.656)">
        <g id="Grupo_121256" data-name="Grupo 121256">
          <path id="Trazado_119644" data-name="Trazado 119644" d="M605.123,192.275H437.7a16.718,16.718,0,0,1-16.719-16.719h0A16.718,16.718,0,0,1,437.7,158.838h167.42a16.718,16.718,0,0,1,16.719,16.719h0A16.718,16.718,0,0,1,605.123,192.275Z" transform="translate(-420.209 -158.062)" fill="#fff"/>
          <path id="Trazado_119645" data-name="Trazado 119645" d="M605.45,193.378H438.03a17.494,17.494,0,1,1,0-34.988H605.45a17.494,17.494,0,1,1,0,34.988ZM438.03,159.941a15.944,15.944,0,0,0,0,31.888H605.45a15.944,15.944,0,0,0,0-31.888Z" transform="translate(-420.536 -158.39)" fill="#26ccda"/>
        </g>
        <g id="Grupo_121259" data-name="Grupo 121259" transform="translate(163.233 6.003)">
          <g id="Grupo_121257" data-name="Grupo 121257">
            <path id="Trazado_119646" data-name="Trazado 119646" d="M525.171,182.534A10.338,10.338,0,1,1,535.507,172.2,10.349,10.349,0,0,1,525.171,182.534Zm0-17.781a7.444,7.444,0,1,0,7.442,7.445A7.452,7.452,0,0,0,525.171,164.752Z" transform="translate(-514.833 -161.858)" fill="#26ccda"/>
          </g>
          <g id="Grupo_121258" data-name="Grupo 121258" transform="translate(15.179 15.177)">
            <path id="Trazado_119647" data-name="Trazado 119647" d="M529.955,178.43a1.442,1.442,0,0,1-1.021-.424l-4.909-4.909a1.446,1.446,0,0,1,2.044-2.046l4.909,4.909a1.447,1.447,0,0,1-1.023,2.47Z" transform="translate(-523.602 -170.626)" fill="#26ccda"/>
          </g>
        </g>
      </g>
      <g id="Grupo_121300" data-name="Grupo 121300" transform="translate(192.963 73.217)">
        <g id="Grupo_121261" data-name="Grupo 121261" transform="translate(358.196 567.551)">
          <rect id="Rectángulo_35681" data-name="Rectángulo 35681" width="68.804" height="68.804" rx="7.708" transform="translate(12.539)" fill="#26ccda"/>
          <rect id="Rectángulo_35682" data-name="Rectángulo 35682" width="68.804" height="68.804" rx="7.708" fill="#6edde6"/>
          <path id="Trazado_119648" data-name="Trazado 119648" d="M357.905,413.557l19.751,11.4a1.829,1.829,0,0,1,0,3.168l-19.751,11.4a1.827,1.827,0,0,1-2.742-1.584v-22.8A1.829,1.829,0,0,1,357.905,413.557Z" transform="translate(-331.629 -392.142)" fill="#fff"/>
        </g>
        <g id="Grupo_121262" data-name="Grupo 121262" transform="translate(772.982 546.412)">
          <rect id="Rectángulo_35683" data-name="Rectángulo 35683" width="89.944" height="89.943" rx="10.076" transform="translate(16.392)" fill="#f57c00"/>
          <rect id="Rectángulo_35684" data-name="Rectángulo 35684" width="89.944" height="89.943" rx="10.076" fill="#26ccda"/>
          <path id="Trazado_119649" data-name="Trazado 119649" d="M622.532,406.182a10.806,10.806,0,1,1-10.807-10.807A10.807,10.807,0,0,1,622.532,406.182Z" transform="translate(-566.754 -384.114)" fill="#fff"/>
          <path id="Trazado_119650" data-name="Trazado 119650" d="M639.2,432.267v15.953a2.611,2.611,0,0,1-2.609,2.61H596.758a2.611,2.611,0,0,1-2.61-2.61V432.267a22.527,22.527,0,0,1,22.528-22.526h0A22.526,22.526,0,0,1,639.2,432.267Z" transform="translate(-571.705 -373.612)" fill="#fff"/>
        </g>
        <g id="Grupo_121263" data-name="Grupo 121263" transform="translate(578.79 195.597)">
          <path id="Trazado_119651" data-name="Trazado 119651" d="M507.022,191.524H471.658A2.658,2.658,0,0,1,469,188.867h0a2.659,2.659,0,0,1,2.657-2.657h35.364a2.658,2.658,0,0,1,2.657,2.657h0A2.657,2.657,0,0,1,507.022,191.524Z" transform="translate(-469.001 -186.21)" fill="#fdd835"/>
          <path id="Trazado_119652" data-name="Trazado 119652" d="M523.332,191.524H497.74a2.658,2.658,0,0,1-2.657-2.657h0a2.659,2.659,0,0,1,2.657-2.657h25.592a2.658,2.658,0,0,1,2.657,2.657h0A2.657,2.657,0,0,1,523.332,191.524Z" transform="translate(-449.934 -186.21)" fill="#fdd835"/>
          <path id="Trazado_119653" data-name="Trazado 119653" d="M486.684,198.274H471.658A2.658,2.658,0,0,1,469,195.617h0a2.659,2.659,0,0,1,2.657-2.657h15.026a2.659,2.659,0,0,1,2.657,2.657h0A2.658,2.658,0,0,1,486.684,198.274Z" transform="translate(-469.001 -181.275)" fill="#fdd835"/>
          <path id="Trazado_119654" data-name="Trazado 119654" d="M532.287,198.274h-46.8a2.658,2.658,0,0,1-2.657-2.657h0a2.659,2.659,0,0,1,2.657-2.657h46.8a2.658,2.658,0,0,1,2.657,2.657h0A2.657,2.657,0,0,1,532.287,198.274Z" transform="translate(-458.889 -181.275)" fill="#fdd835"/>
          <path id="Trazado_119655" data-name="Trazado 119655" d="M518.274,205.024H471.658A2.658,2.658,0,0,1,469,202.367h0a2.659,2.659,0,0,1,2.657-2.657h46.615a2.658,2.658,0,0,1,2.657,2.657h0A2.657,2.657,0,0,1,518.274,205.024Z" transform="translate(-469.001 -176.341)" fill="#fdd835"/>
          <path id="Trazado_119656" data-name="Trazado 119656" d="M518.87,205.024H503.846a2.658,2.658,0,0,1-2.659-2.657h0a2.659,2.659,0,0,1,2.659-2.657H518.87a2.658,2.658,0,0,1,2.657,2.657h0A2.657,2.657,0,0,1,518.87,205.024Z" transform="translate(-445.471 -176.341)" fill="#fdd835"/>
        </g>
        <g id="Grupo_121268" data-name="Grupo 121268" transform="translate(38.943 396.774)">
          <rect id="Rectángulo_35685" data-name="Rectángulo 35685" width="136.687" height="75.554" rx="3.823" fill="#f57c00"/>
          <g id="Grupo_121264" data-name="Grupo 121264" transform="translate(5.034 9.431)">
            <path id="Trazado_119657" data-name="Trazado 119657" d="M285.893,309.426H160.824a.776.776,0,0,1,0-1.551H285.893a.776.776,0,0,1,0,1.551Z" transform="translate(-160.049 -307.875)" fill="#fff"/>
          </g>
          <circle id="Elipse_4263" data-name="Elipse 4263" cx="1.515" cy="1.515" r="1.515" transform="translate(126.062 3.499)" fill="#fff"/>
          <circle id="Elipse_4264" data-name="Elipse 4264" cx="1.515" cy="1.515" r="1.515" transform="translate(118.164 3.499)" fill="#fff"/>
          <circle id="Elipse_4265" data-name="Elipse 4265" cx="1.515" cy="1.515" r="1.515" transform="translate(110.266 3.499)" fill="#fff"/>
          <g id="Grupo_121267" data-name="Grupo 121267" transform="translate(5.81 16.193)">
            <g id="Grupo_121265" data-name="Grupo 121265">
              <path id="Trazado_119658" data-name="Trazado 119658" d="M183.811,315.965H162.588a2.091,2.091,0,0,1-2.091-2.091h0a2.093,2.093,0,0,1,2.091-2.093h21.223a2.093,2.093,0,0,1,2.091,2.093h0A2.091,2.091,0,0,1,183.811,315.965Z" transform="translate(-160.497 -311.781)" fill="#ffe9d3"/>
              <path id="Trazado_119659" data-name="Trazado 119659" d="M183.811,321.547H162.588a2.092,2.092,0,0,1-2.091-2.091h0a2.092,2.092,0,0,1,2.091-2.091h21.223a2.092,2.092,0,0,1,2.091,2.091h0A2.092,2.092,0,0,1,183.811,321.547Z" transform="translate(-160.497 -307.699)" fill="#ffe9d3"/>
              <path id="Trazado_119660" data-name="Trazado 119660" d="M183.811,327.132H162.588a2.092,2.092,0,0,1-2.091-2.093h0a2.091,2.091,0,0,1,2.091-2.091h21.223a2.091,2.091,0,0,1,2.091,2.091h0A2.092,2.092,0,0,1,183.811,327.132Z" transform="translate(-160.497 -303.617)" fill="#ffe9d3"/>
              <path id="Trazado_119661" data-name="Trazado 119661" d="M183.811,332.715H162.588a2.091,2.091,0,0,1-2.091-2.091h0a2.093,2.093,0,0,1,2.091-2.093h21.223a2.093,2.093,0,0,1,2.091,2.093h0A2.091,2.091,0,0,1,183.811,332.715Z" transform="translate(-160.497 -299.536)" fill="#ffe9d3"/>
              <path id="Trazado_119662" data-name="Trazado 119662" d="M183.811,338.3H162.588a2.091,2.091,0,0,1-2.091-2.091h0a2.091,2.091,0,0,1,2.091-2.091h21.223a2.091,2.091,0,0,1,2.091,2.091h0A2.091,2.091,0,0,1,183.811,338.3Z" transform="translate(-160.497 -295.454)" fill="#ffe9d3"/>
              <path id="Trazado_119663" data-name="Trazado 119663" d="M183.811,343.882H162.588a2.092,2.092,0,0,1-2.091-2.093h0a2.091,2.091,0,0,1,2.091-2.091h21.223a2.091,2.091,0,0,1,2.091,2.091h0A2.092,2.092,0,0,1,183.811,343.882Z" transform="translate(-160.497 -291.372)" fill="#ffe9d3"/>
            </g>
            <g id="Grupo_121266" data-name="Grupo 121266" transform="translate(29.428)">
              <path id="Trazado_119664" data-name="Trazado 119664" d="M271.045,315.965H179.588a2.091,2.091,0,0,1-2.091-2.091h0a2.093,2.093,0,0,1,2.091-2.093h91.457a2.093,2.093,0,0,1,2.093,2.093h0A2.092,2.092,0,0,1,271.045,315.965Z" transform="translate(-177.497 -311.781)" fill="#ffbe7b"/>
              <path id="Trazado_119665" data-name="Trazado 119665" d="M271.045,321.547H179.588a2.092,2.092,0,0,1-2.091-2.091h0a2.092,2.092,0,0,1,2.091-2.091h91.457a2.092,2.092,0,0,1,2.093,2.091h0A2.092,2.092,0,0,1,271.045,321.547Z" transform="translate(-177.497 -307.699)" fill="#ffbe7b"/>
              <path id="Trazado_119666" data-name="Trazado 119666" d="M271.045,327.132H179.588a2.092,2.092,0,0,1-2.091-2.093h0a2.091,2.091,0,0,1,2.091-2.091h91.457a2.092,2.092,0,0,1,2.093,2.091h0A2.092,2.092,0,0,1,271.045,327.132Z" transform="translate(-177.497 -303.617)" fill="#ffbe7b"/>
              <path id="Trazado_119667" data-name="Trazado 119667" d="M271.045,332.715H179.588a2.092,2.092,0,0,1-2.091-2.091h0a2.093,2.093,0,0,1,2.091-2.093h91.457a2.093,2.093,0,0,1,2.093,2.093h0A2.092,2.092,0,0,1,271.045,332.715Z" transform="translate(-177.497 -299.536)" fill="#ffbe7b"/>
              <path id="Trazado_119668" data-name="Trazado 119668" d="M271.045,338.3H179.588a2.092,2.092,0,0,1-2.091-2.091h0a2.091,2.091,0,0,1,2.091-2.091h91.457a2.092,2.092,0,0,1,2.093,2.091h0A2.092,2.092,0,0,1,271.045,338.3Z" transform="translate(-177.497 -295.454)" fill="#ffbe7b"/>
              <path id="Trazado_119669" data-name="Trazado 119669" d="M271.045,343.882H179.588a2.092,2.092,0,0,1-2.091-2.093h0a2.092,2.092,0,0,1,2.091-2.091h91.457a2.092,2.092,0,0,1,2.093,2.091h0A2.092,2.092,0,0,1,271.045,343.882Z" transform="translate(-177.497 -291.372)" fill="#ffbe7b"/>
            </g>
          </g>
        </g>
        <g id="Grupo_121285" data-name="Grupo 121285" transform="translate(690.592 0)">
          <g id="Grupo_121269" data-name="Grupo 121269" transform="translate(7.578 7.577)">
            <path id="Trazado_119670" data-name="Trazado 119670" d="M594.917,191.5a56.952,56.952,0,1,1,56.952-56.952A57.016,57.016,0,0,1,594.917,191.5Zm0-112.537A55.585,55.585,0,1,0,650.5,134.547,55.649,55.649,0,0,0,594.917,78.962Z" transform="translate(-537.965 -77.594)" fill="#92e6ed"/>
          </g>
          <circle id="Elipse_4266" data-name="Elipse 4266" cx="48.919" cy="48.919" r="48.919" transform="translate(15.611 15.611)" fill="#26ccda"/>
          <path id="Trazado_119671" data-name="Trazado 119671" d="M577.2,112.376a4.452,4.452,0,1,1-4.452-4.454A4.452,4.452,0,0,1,577.2,112.376Z" transform="translate(-508.216 -47.846)" fill="#fff"/>
          <path id="Trazado_119672" data-name="Trazado 119672" d="M577.535,122.051h0a1.393,1.393,0,0,1-1.894-.542l-14.387-25.95a1.393,1.393,0,0,1,.542-1.894h0a1.392,1.392,0,0,1,1.894.542l14.387,25.95A1.393,1.393,0,0,1,577.535,122.051Z" transform="translate(-513.49 -58.396)" fill="#fff"/>
          <path id="Trazado_119673" data-name="Trazado 119673" d="M571.446,111.075h0a1.394,1.394,0,0,1,1.97,0l12.446,12.448a1.391,1.391,0,0,1,0,1.968h0a1.391,1.391,0,0,1-1.97,0l-12.446-12.446A1.394,1.394,0,0,1,571.446,111.075Z" transform="translate(-506.209 -45.838)" fill="#fff"/>
          <g id="Grupo_121274" data-name="Grupo 121274" transform="translate(18.016 18.017)">
            <g id="Grupo_121270" data-name="Grupo 121270" transform="translate(45.082)">
              <path id="Trazado_119674" data-name="Trazado 119674" d="M571.769,92.713a1.731,1.731,0,0,1-1.731-1.731V85.356a1.731,1.731,0,1,1,3.462,0v5.626A1.731,1.731,0,0,1,571.769,92.713Z" transform="translate(-570.038 -83.625)" fill="#fff"/>
            </g>
            <g id="Grupo_121271" data-name="Grupo 121271" transform="translate(83.937 45.08)">
              <path id="Trazado_119675" data-name="Trazado 119675" d="M599.841,113.129h-5.626a1.731,1.731,0,1,1,0-3.462h5.626a1.731,1.731,0,0,1,0,3.462Z" transform="translate(-592.484 -109.667)" fill="#fff"/>
            </g>
            <g id="Grupo_121272" data-name="Grupo 121272" transform="translate(44.483 83.937)">
              <path id="Trazado_119676" data-name="Trazado 119676" d="M571.423,141.2a1.731,1.731,0,0,1-1.731-1.731v-5.626a1.731,1.731,0,1,1,3.462,0v5.626A1.729,1.729,0,0,1,571.423,141.2Z" transform="translate(-569.692 -132.114)" fill="#fff"/>
            </g>
            <g id="Grupo_121273" data-name="Grupo 121273" transform="translate(0 44.483)">
              <path id="Trazado_119677" data-name="Trazado 119677" d="M551.352,112.784h-5.626a1.731,1.731,0,1,1,0-3.462h5.626a1.731,1.731,0,0,1,0,3.462Z" transform="translate(-543.995 -109.322)" fill="#fff"/>
            </g>
          </g>
          <g id="Grupo_121279" data-name="Grupo 121279" transform="translate(24.733 24.732)" opacity="0.5">
            <g id="Grupo_121275" data-name="Grupo 121275" transform="translate(16.8)">
              <path id="Trazado_119678" data-name="Trazado 119678" d="M561.258,94.108a.866.866,0,0,1-.75-.433L557.7,88.8a.866.866,0,0,1,1.5-.866l2.813,4.873a.866.866,0,0,1-.75,1.3Z" transform="translate(-557.58 -87.504)" fill="#dee3fc"/>
            </g>
            <g id="Grupo_121276" data-name="Grupo 121276" transform="translate(72.991 16.799)">
              <path id="Trazado_119679" data-name="Trazado 119679" d="M590.907,101.753a.866.866,0,0,1-.433-1.615l4.871-2.813a.866.866,0,0,1,.865,1.5l-4.871,2.813A.871.871,0,0,1,590.907,101.753Z" transform="translate(-590.041 -97.209)" fill="#dee3fc"/>
            </g>
            <g id="Grupo_121277" data-name="Grupo 121277" transform="translate(58.25 72.992)">
              <path id="Trazado_119680" data-name="Trazado 119680" d="M585.2,136.274a.861.861,0,0,1-.748-.433l-2.813-4.873a.865.865,0,1,1,1.5-.866l2.813,4.873a.863.863,0,0,1-.317,1.182A.874.874,0,0,1,585.2,136.274Z" transform="translate(-581.525 -129.67)" fill="#dee3fc"/>
            </g>
            <g id="Grupo_121278" data-name="Grupo 121278" transform="translate(0 58.25)">
              <path id="Trazado_119681" data-name="Trazado 119681" d="M548.74,125.7a.866.866,0,0,1-.433-1.615l4.871-2.813a.866.866,0,0,1,.866,1.5l-4.871,2.813A.873.873,0,0,1,548.74,125.7Z" transform="translate(-547.875 -121.154)" fill="#dee3fc"/>
            </g>
          </g>
          <g id="Grupo_121284" data-name="Grupo 121284" transform="translate(25.032 25.032)" opacity="0.5">
            <g id="Grupo_121280" data-name="Grupo 121280" transform="translate(0 15.982)">
              <path id="Trazado_119682" data-name="Trazado 119682" d="M553.785,101.454a.855.855,0,0,1-.433-.116l-4.871-2.813a.866.866,0,1,1,.866-1.5l4.871,2.813a.866.866,0,0,1-.433,1.615Z" transform="translate(-548.048 -96.91)" fill="#dee3fc"/>
            </g>
            <g id="Grupo_121281" data-name="Grupo 121281" transform="translate(58.47)">
              <path id="Trazado_119683" data-name="Trazado 119683" d="M582.69,94.28a.855.855,0,0,1-.433-.116.864.864,0,0,1-.315-1.182l2.813-4.873a.865.865,0,1,1,1.5.866l-2.813,4.873A.866.866,0,0,1,582.69,94.28Z" transform="translate(-581.825 -87.678)" fill="#dee3fc"/>
            </g>
            <g id="Grupo_121282" data-name="Grupo 121282" transform="translate(72.393 58.469)">
              <path id="Trazado_119684" data-name="Trazado 119684" d="M595.606,126a.856.856,0,0,1-.433-.116l-4.873-2.813a.866.866,0,0,1,.866-1.5l4.873,2.813a.866.866,0,0,1-.433,1.615Z" transform="translate(-589.868 -121.454)" fill="#dee3fc"/>
            </g>
            <g id="Grupo_121283" data-name="Grupo 121283" transform="translate(15.982 72.392)">
              <path id="Trazado_119685" data-name="Trazado 119685" d="M558.145,136.1a.855.855,0,0,1-.433-.116.864.864,0,0,1-.315-1.182l2.813-4.873a.865.865,0,1,1,1.5.866l-2.813,4.873A.866.866,0,0,1,558.145,136.1Z" transform="translate(-557.28 -129.497)" fill="#dee3fc"/>
            </g>
          </g>
        </g>
        <g id="Grupo_121290" data-name="Grupo 121290" transform="translate(0 243.694)">
          <rect id="Rectángulo_35686" data-name="Rectángulo 35686" width="94.919" height="94.919" rx="9.569" transform="translate(8.222 9.087)" fill="#f57c00"/>
          <g id="Grupo_121286" data-name="Grupo 121286">
            <rect id="Rectángulo_35687" data-name="Rectángulo 35687" width="94.919" height="94.919" rx="10" transform="translate(0.865 0.865)" fill="#b7eef3"/>
            <path id="Trazado_119686" data-name="Trazado 119686" d="M217.158,310.645H148.782a14.154,14.154,0,0,1-14.138-14.138V228.131a14.153,14.153,0,0,1,14.138-14.136h68.377a14.152,14.152,0,0,1,14.136,14.136v68.377A14.154,14.154,0,0,1,217.158,310.645Zm-68.377-94.919a12.419,12.419,0,0,0-12.406,12.4v68.377a12.42,12.42,0,0,0,12.406,12.406h68.377a12.42,12.42,0,0,0,12.4-12.406V228.131a12.418,12.418,0,0,0-12.4-12.4Z" transform="translate(-134.644 -213.995)" fill="#6edde6"/>
          </g>
          <g id="Grupo_121289" data-name="Grupo 121289" transform="translate(27.248 15.832)">
            <g id="Grupo_121288" data-name="Grupo 121288">
              <g id="Grupo_121287" data-name="Grupo 121287">
                <path id="Trazado_119687" data-name="Trazado 119687" d="M187.9,244.765h-.5v-5.437a16.184,16.184,0,1,0-32.367,0v5.437h-.109a4.54,4.54,0,0,0-4.541,4.541V269.8a4.541,4.541,0,0,0,4.541,4.542H187.9a4.543,4.543,0,0,0,4.542-4.542v-20.49A4.541,4.541,0,0,0,187.9,244.765Zm-28.763-5.437a12.084,12.084,0,1,1,24.169,0v5.437H159.134Z" transform="translate(-150.385 -223.141)" fill="#26ccda"/>
              </g>
              <path id="Trazado_119688" data-name="Trazado 119688" d="M170.071,243.947a5.282,5.282,0,1,0-7.944,4.553.947.947,0,0,1,.479,1.059l-.919,3.393a3.172,3.172,0,1,0,6.123,0L166.9,249.6a.949.949,0,0,1,.492-1.068A5.259,5.259,0,0,0,170.071,243.947Z" transform="translate(-143.714 -211.791)" fill="#dbf6f9"/>
            </g>
            <path id="Trazado_119689" data-name="Trazado 119689" d="M190.492,258.513H152.332a1.946,1.946,0,0,1-1.947-1.947h0a1.947,1.947,0,0,1,1.947-1.947h38.159a1.948,1.948,0,0,1,1.947,1.947h0A1.947,1.947,0,0,1,190.492,258.513Z" transform="translate(-150.385 -200.13)" fill="#dbf6f9"/>
            <path id="Trazado_119690" data-name="Trazado 119690" d="M190.492,262.326H152.332a1.947,1.947,0,0,1-1.947-1.947h0a1.946,1.946,0,0,1,1.947-1.947h38.159a1.947,1.947,0,0,1,1.947,1.947h0A1.948,1.948,0,0,1,190.492,262.326Z" transform="translate(-150.385 -197.342)" fill="#dbf6f9"/>
          </g>
        </g>
        <g id="Grupo_121298" data-name="Grupo 121298" transform="translate(782.919 397.687)">
          <g id="Grupo_121292" data-name="Grupo 121292">
            <path id="Rectángulo_35688" data-name="Rectángulo 35688" d="M5.634,0H50.247a5.634,5.634,0,0,1,5.634,5.634V50.247a5.633,5.633,0,0,1-5.633,5.633H5.634A5.634,5.634,0,0,1,0,50.247V5.634A5.634,5.634,0,0,1,5.634,0Z" transform="translate(5.197 5.707)" fill="#f57c00"/>
            <g id="Grupo_121291" data-name="Grupo 121291">
              <rect id="Rectángulo_35689" data-name="Rectángulo 35689" width="55.88" height="55.881" rx="7" transform="translate(0.866 0.866)" fill="#ffa726"/>
              <path id="Trazado_119691" data-name="Trazado 119691" d="M635.855,360.565H595.6a8.688,8.688,0,0,1-8.68-8.678V311.633a8.689,8.689,0,0,1,8.68-8.68h40.252a8.689,8.689,0,0,1,8.68,8.68v40.254A8.688,8.688,0,0,1,635.855,360.565ZM595.6,304.685a6.957,6.957,0,0,0-6.949,6.948v40.254a6.956,6.956,0,0,0,6.949,6.947h40.252a6.956,6.956,0,0,0,6.948-6.947V311.633a6.957,6.957,0,0,0-6.948-6.948Z" transform="translate(-586.923 -302.954)" fill="#f57c00"/>
            </g>
          </g>
          <g id="Grupo_121297" data-name="Grupo 121297" transform="translate(12.117 12.115)">
            <g id="Grupo_121293" data-name="Grupo 121293" transform="translate(3.667)">
              <path id="Trazado_119692" data-name="Trazado 119692" d="M597.774,343.331a1.648,1.648,0,0,1-.473-.066,1.728,1.728,0,0,1-1.195-2.134l8.451-29.914a1.73,1.73,0,1,1,3.331.94l-8.451,29.914A1.73,1.73,0,0,1,597.774,343.331Z" transform="translate(-596.041 -309.953)" fill="#fff"/>
            </g>
            <g id="Grupo_121294" data-name="Grupo 121294" transform="translate(17.797)">
              <path id="Trazado_119693" data-name="Trazado 119693" d="M605.937,343.331a1.629,1.629,0,0,1-.471-.066,1.727,1.727,0,0,1-1.2-2.134l8.453-29.914a1.73,1.73,0,1,1,3.331.94L607.6,342.071A1.728,1.728,0,0,1,605.937,343.331Z" transform="translate(-604.204 -309.953)" fill="#fff"/>
            </g>
            <g id="Grupo_121295" data-name="Grupo 121295" transform="translate(0 8.181)">
              <path id="Trazado_119694" data-name="Trazado 119694" d="M625.568,318.141H595.654a1.731,1.731,0,1,1,0-3.462h29.914a1.731,1.731,0,1,1,0,3.462Z" transform="translate(-593.923 -314.679)" fill="#fff"/>
            </g>
            <g id="Grupo_121296" data-name="Grupo 121296" transform="translate(0 21.846)">
              <path id="Trazado_119695" data-name="Trazado 119695" d="M625.568,326.035H595.654a1.731,1.731,0,1,1,0-3.462h29.914a1.731,1.731,0,1,1,0,3.462Z" transform="translate(-593.923 -322.573)" fill="#fff"/>
            </g>
          </g>
        </g>
        <g id="Grupo_121299" data-name="Grupo 121299" transform="translate(135.645 277.026)">
          <path id="Trazado_119696" data-name="Trazado 119696" d="M237.012,237.995H215.377A2.374,2.374,0,0,1,213,235.622h0a2.373,2.373,0,0,1,2.373-2.372h21.635a2.372,2.372,0,0,1,2.371,2.372h0A2.372,2.372,0,0,1,237.012,237.995Z" transform="translate(-213.004 -233.25)" fill="#fff"/>
          <path id="Trazado_119697" data-name="Trazado 119697" d="M258.806,244.078H215.377A2.372,2.372,0,0,1,213,241.706h0a2.374,2.374,0,0,1,2.373-2.373h43.429a2.372,2.372,0,0,1,2.372,2.373h0A2.371,2.371,0,0,1,258.806,244.078Z" transform="translate(-213.004 -228.803)" fill="#fff"/>
          <path id="Trazado_119698" data-name="Trazado 119698" d="M220.506,250.162h-5.129A2.374,2.374,0,0,1,213,247.789h0a2.372,2.372,0,0,1,2.373-2.372h5.129a2.371,2.371,0,0,1,2.372,2.372h0A2.372,2.372,0,0,1,220.506,250.162Z" transform="translate(-213.004 -224.355)" fill="#fff"/>
          <path id="Trazado_119699" data-name="Trazado 119699" d="M253.235,250.162H223a2.372,2.372,0,0,1-2.372-2.373h0A2.371,2.371,0,0,1,223,245.417h30.24a2.371,2.371,0,0,1,2.372,2.372h0A2.372,2.372,0,0,1,253.235,250.162Z" transform="translate(-207.433 -224.355)" fill="#fff"/>
          <path id="Trazado_119700" data-name="Trazado 119700" d="M246,237.995H232.889a2.373,2.373,0,0,1-2.372-2.373h0a2.373,2.373,0,0,1,2.372-2.372H246a2.372,2.372,0,0,1,2.372,2.372h0A2.372,2.372,0,0,1,246,237.995Z" transform="translate(-200.201 -233.25)" fill="#fff"/>
        </g>
        <path id="Trazado_119701" data-name="Trazado 119701" d="M192.005,428.085a15.022,15.022,0,0,0-7.714,2.119,16.178,16.178,0,0,0-32.156,3.594,12.354,12.354,0,1,0-2.29,24.494h42.16a15.1,15.1,0,1,0,0-30.207Z" transform="translate(-132.563 177.263)" fill="#fff"/>
      </g>
      <g id="Grupo_121302" data-name="Grupo 121302" transform="translate(92.744 522.697)">
        <path id="Trazado_119702" data-name="Trazado 119702" d="M124.528,423.868a15.923,15.923,0,0,1,.216-6.794c1.906-7.447,4.087-21.456-.76-36.591-8.086-25.247-40.858-47.609-40.858-47.609s8.9,37.259,16.21,53.122c5.354,11.615,14.721,24.832,19.917,31.793a15.533,15.533,0,0,1,2.86,6.528,271.793,271.793,0,0,1,4.518,52.366l2.46.1A274.361,274.361,0,0,0,124.528,423.868Z" transform="translate(-72.087 -332.874)" fill="#ffd3a7"/>
        <path id="Trazado_119703" data-name="Trazado 119703" d="M131.765,390.658c6.509-20.582,9.536-44.827,9.536-44.827s-29.383,24.245-31.791,43a62.96,62.96,0,0,0,2,26.13,17.874,17.874,0,0,1,.692,7.1,248.718,248.718,0,0,0-.606,49.089l2.211-.254a244.973,244.973,0,0,1,.35-46.086,18.336,18.336,0,0,1,4.047-9.737A76.959,76.959,0,0,0,131.765,390.658Z" transform="translate(-53.194 -323.402)" fill="#ffbe7b"/>
        <path id="Trazado_119704" data-name="Trazado 119704" d="M159.737,345.278s-31.664,11.75-39.944,37.6c-5.039,15.735-2.659,30.28-.689,37.811a12.993,12.993,0,0,1-.005,6.443c-7.418,29.75-7.532,60.547-7.532,60.957h2.52c0-.4.116-30.465,7.279-59.643a22.363,22.363,0,0,1,3.755-8.018c5.4-7.274,14.589-20.361,19.912-31.9C152.522,372.282,159.737,345.278,159.737,345.278Z" transform="translate(-51.295 -323.806)" fill="#ffd3a7"/>
        <path id="Trazado_119705" data-name="Trazado 119705" d="M129.321,446.761a87.82,87.82,0,0,0-7.312-28.739,9.812,9.812,0,0,1-.737-5.2,47.512,47.512,0,0,0-.739-15.453c-2.571-12.685-19.407-40.088-43.784-41.694,0,0,8.411,13.521,12.739,24.835,5.475,14.312,13.293,29.286,26.253,35.031a9.741,9.741,0,0,1,5.015,5.207,84.956,84.956,0,0,1,6.344,26.173Z" transform="translate(-76.749 -316.205)" fill="#ffbe7b"/>
        <g id="Grupo_121301" data-name="Grupo 121301" transform="translate(25.592 116.901)">
          <path id="Trazado_119706" data-name="Trazado 119706" d="M102.032,469.574h40.226L152.7,405.793a4.639,4.639,0,0,0-4.579-5.387H96.172a4.638,4.638,0,0,0-4.577,5.387Z" transform="translate(-91.533 -400.406)" fill="#ffd3a7"/>
        </g>
      </g>
    </g>
  </g>
</svg>
